<svg width="459" height="560" viewBox="0 0 459 560" fill="none" xmlns="http://www.w3.org/2000/svg">
<path d="M109.411 556.958C109.411 554.086 109.65 553.684 113.328 551.769C118.119 549.136 123.395 543.546 125.629 538.596L127.383 534.843L127.622 421.331L127.784 307.896L132.019 307.34C134.252 307.1 144.636 305.347 154.943 303.587C165.25 301.834 175.628 300.151 177.946 299.996L182.102 299.595V309.17C182.102 318.189 182.264 318.908 183.779 319.71C188.894 322.506 256.386 313.402 256.386 309.973C256.386 308.536 244.487 294.406 235.617 285.224L227.233 276.606L213.256 281.394C191.613 288.977 165.25 295.363 143.368 298.475C123.797 301.186 96.4055 303.742 85.5419 303.742C78.5954 303.819 73.5581 304.777 72.6 306.297C71.6419 307.734 71.7194 478.002 72.6 486.62C73.0791 490.69 74.0372 494.844 74.9178 496.682C76.8341 500.357 82.745 505.94 86.6621 507.856C89.1349 509.052 89.459 509.531 89.459 512.249V515.284H44.7295H0V512.249C0 509.454 0.239538 509.06 3.51552 507.539C8.70778 504.983 12.3783 501.392 14.4566 496.759L16.3729 492.528L16.6124 259.835C16.7744 30.3389 16.7744 27.065 15.2527 21.9533C13.5759 16.6023 10.779 13.1734 3.83255 7.98431C1.27517 6.14665 0.796102 5.35103 0.796102 2.87265V0L66.4496 0.239386C200.561 0.640714 218.533 0.880093 227.635 2.23193C263.417 7.89981 289.139 20.6719 311.585 43.9841C326.922 60.0302 335.947 77.2732 340.822 100.1C342.9 109.598 343.055 111.273 343.055 131.312C343.055 150.392 342.816 153.265 341.217 160.848C337.623 177.373 331.473 191.982 322.526 205.712C316.932 214.091 314.058 217.604 304.075 227.743C291.774 240.276 279.875 249.372 263.502 258.716L256.795 262.63L274.605 280.275L292.415 297.996L299.763 294.406C345.93 271.973 379.077 232.538 388.186 189.194C390.582 177.859 391.138 160.616 389.462 148.885C384.671 114.723 370.454 93.8051 345.69 84.6238C343.534 83.8282 341.858 82.8706 341.858 82.4693C341.858 80.6316 332.03 61.3186 328.676 56.6858C326.203 53.1724 325.083 50.7785 325.083 49.0253V46.4695L333.706 46.9483C366.058 48.5466 401.917 65.6276 423.003 89.4961C437.7 106.021 446.569 123.503 451.437 145.457C453.037 152.483 453.192 155.595 453.276 175.232C453.276 199.657 452.72 204.29 447.682 219.618C437.854 249.71 417.17 274.698 383.945 296.891C367.812 307.586 340.096 320.682 318.531 327.702C315.495 328.659 313.099 329.539 313.099 329.694C313.099 329.856 314.375 332.25 315.974 335.045C338.258 374.242 349.762 416.627 351.199 464.604C351.601 479.77 350.558 504.596 349.283 507.792C348.966 508.75 341.696 508.912 306.632 508.912H264.375V506.039C264.375 503.568 265.171 502.286 269.49 497.66C284.743 481.537 292.577 455.908 292.654 422.302C292.732 400.673 289.858 382.789 283.151 362.357C279.558 351.422 274.527 339.685 273.407 339.685C273.09 339.685 268.616 340.403 263.579 341.283C243.613 344.797 226.275 346.55 192.888 348.31L182.504 348.866V441.46C182.504 530.788 182.581 534.216 184.019 538.047C185.857 542.679 191.367 548.904 196.242 551.776C199.356 553.614 199.68 554.093 199.68 556.888V560H154.549H109.418V556.965L109.411 556.958ZM97.9061 274.614C158.614 268.784 202.463 250.583 237.287 216.583C246.551 207.564 254.378 197.587 261.487 185.611C270.434 170.522 275.464 157.271 278.423 140.669C280.262 130.692 280.262 108.739 278.501 98.9167C272.512 65.3882 254.78 44.7938 225.705 37.5276C212.925 34.3381 200.462 33.8523 134.731 34.0917C75.7844 34.3311 74.1077 34.4085 72.9875 35.8449C72.0294 37.2038 71.8673 54.7636 71.8673 155.103C71.8673 234.608 72.1068 273.241 72.6634 274.283C73.7836 276.198 79.8494 276.275 97.9061 274.6V274.614Z" fill="#228379"/>
<path d="M371.588 556.897C371.588 554.272 372.227 552.994 375.574 549.098C387.687 535.094 391.272 514.954 387.448 482.404C386.175 471.741 381.549 450.885 377.887 439.267C367.686 407.51 353.021 379.656 328.472 345.357C324.964 340.584 323.769 338.197 323.769 336.203C323.769 333.578 323.846 333.501 330.785 330.953C340.831 327.288 341.224 327.373 350.075 334.533C382.597 360.794 405.311 386.739 422.366 417.141C444.364 456.297 456.878 503.014 457.834 549.253L458.073 559.6L414.872 559.838L371.595 560V556.897H371.588Z" fill="#228379"/>
</svg>
