<svg width="2628" height="277" viewBox="0 0 2628 277" fill="none" xmlns="http://www.w3.org/2000/svg">
<path d="M1108.03 34.2978C1175.78 39.8665 1241.18 44.5284 1308.93 53.7345C1309.98 53.8781 1311.03 54.0226 1312.09 54.1678C1395.16 65.599 1478.76 82.1166 1561.53 96.8741C1644.9 111.727 1728.55 127.716 1812.03 143.473C1864.17 153.315 1916.3 163.077 1968.53 172.472C2000.03 178.136 2031.56 183.667 2063.12 189.088C2146.86 203.465 2230.89 217.092 2314.89 230.195C2371.96 239.098 2429.03 247.748 2486.18 256.275C2496.52 257.819 2507.09 259.395 2517.34 260.918C2531.96 263.094 2546.58 265.27 2561.22 267.448C2579.91 270.228 2598.59 273.007 2617.28 275.787C2619.88 276.173 2622.39 276.418 2624.26 276.459C2626.13 276.5 2627.22 276.338 2627.28 275.994C2627.33 275.649 2626.34 275.145 2624.55 274.584C2622.76 274.024 2620.29 273.454 2617.71 272.989C2598.96 269.621 2580.21 266.254 2561.46 262.886C2547.06 260.3 2532.67 257.717 2518.29 255.134C2512.03 254.008 2505.5 252.837 2499.07 251.682C2495.42 252.529 2490.95 252.893 2482.32 251.955C2478.08 251.503 2471.56 250.531 2467.1 249.524C2463.03 248.61 2459.79 247.641 2456.98 246.767C2453.98 245.84 2451.1 244.955 2447.27 244.175C2440.93 242.878 2434.78 241.242 2428.52 239.554C2426.24 238.939 2423.9 238.309 2421.46 237.675C2401.58 234.068 2381.73 230.445 2361.87 226.8C2354.05 225.633 2347.13 224.584 2341.06 223.494C2335.64 222.521 2330.87 221.403 2325.99 220.189C2322.89 219.616 2319.82 219.048 2316.77 218.482C2296.9 214.801 2277.09 211.11 2257.27 207.389C2241.67 205.066 2225.38 202.6 2204.22 199.033C2195.08 197.492 2186.1 196.111 2177.41 194.766C2164.61 192.788 2152.54 190.906 2142.09 188.816C2135.06 187.412 2127.66 186.283 2120.24 185.144C2110.27 183.612 2100.4 182.088 2091.54 179.906C2085.99 178.539 2080.9 177.177 2076.18 175.911C2068.68 173.9 2062.15 172.14 2056.12 170.985C2044.84 168.822 2035.11 166.544 2026.57 164.538C2016.29 162.12 2007.66 160.082 1999.95 159.06C1998.78 158.905 1997.43 158.739 1995.92 158.554C1990.32 157.864 1982.37 156.884 1971.89 154.993C1967.47 154.197 1962.6 153.238 1957.28 152.071C1950.89 150.67 1944.94 149.083 1939.11 147.525C1930.62 145.256 1922.39 143.047 1913.4 141.554C1912.06 141.331 1910.63 141.219 1909.33 141.118C1907.68 140.989 1906.24 140.876 1905.43 140.57C1903.06 139.67 1899.26 138.444 1895.14 137.109C1892.11 136.129 1888.89 135.089 1885.94 134.079C1862.83 129.28 1839.71 124.458 1816.58 119.643C1805.98 117.436 1795.38 115.231 1784.77 113.03C1779.21 112.58 1773.54 112.045 1767.58 111.31C1759.8 110.349 1749.82 108.55 1736.95 106.24C1727.48 104.541 1716.44 102.565 1703.55 100.449C1679.71 96.5284 1655.38 91.6524 1639.83 88.2735C1636.54 87.5582 1633.24 86.8353 1629.7 86.0623C1616.3 83.1373 1599.57 79.4647 1567.67 73.0649C1537.5 67.0195 1511.74 62.3301 1492.37 58.8792C1482.49 57.1172 1474.27 55.6763 1467.98 54.5345C1457.21 52.5809 1443.98 50.2576 1430.67 47.9813C1409.87 44.4119 1388.89 40.9806 1377.03 38.9471C1372.8 38.2211 1368.37 37.4488 1363.59 36.6242C1351.02 34.4625 1335.96 31.9065 1315.56 28.8822C1314.42 28.7148 1313.28 28.546 1312.11 28.3759C1288.83 24.9844 1274.33 23.3181 1259.25 21.8056C1253.13 21.1947 1247.66 21.0885 1242.04 20.9931C1234.06 20.8595 1225.74 20.7378 1214.63 19.2641C1212.04 18.9206 1209.28 18.489 1206.39 18.0411C1201.09 17.2183 1195.35 16.3406 1189.43 15.8525C1187.36 15.6823 1185.53 15.6449 1183.74 15.6095C1181.76 15.5706 1179.83 15.5336 1177.65 15.3267C1169.53 14.5539 1161.62 13.7643 1154.6 13.0847C1145.54 12.2075 1137.93 11.5117 1133.2 11.2381C1124.77 10.7497 1115.59 9.79416 1106.28 8.87051C1099.17 8.16449 1091.99 7.47614 1085.01 7.02161C1065.09 5.71591 1037.71 3.65387 1009.45 1.79144C998.755 1.08636 989.671 1.08109 978.033 1.14767C970.795 1.19189 962.57 1.26794 952.35 1.27249C946.556 1.27582 941.657 0.886566 937.119 0.536682C932.938 0.214661 929.061 -0.0737 925.078 0.0168152C921.562 0.0973206 919.335 0.585724 917.221 1.05066C914.87 1.5687 912.658 2.0571 908.964 1.94183C906.998 1.88074 904.609 1.61862 901.766 1.31287C900.641 1.19196 899.44 1.06473 898.17 0.939728C898.235 1.0426 898.251 1.13455 898.252 1.20416C898.256 1.69604 894.486 1.95422 890.788 2.21942C889.312 2.32507 887.841 2.43094 886.634 2.55075C882.19 2.98904 873.775 3.12149 867.344 3.18637C864.623 3.2128 862.159 3.40039 859.285 3.62439C856.734 3.82355 853.859 4.05145 850.191 4.228C848.099 4.32877 846.494 4.50586 845.168 4.65411C844.207 4.76147 843.39 4.85367 842.631 4.89056C841.974 4.92242 841.44 4.79395 840.839 4.64944C840.407 4.54541 839.938 4.43286 839.363 4.36609C837.988 4.20645 836.225 4.19321 834.991 4.28799C834.421 4.33173 833.972 4.39868 833.526 4.46536C833.006 4.54309 832.489 4.62128 831.775 4.66354C828.498 4.85745 825.304 4.79202 821.984 4.73123C818.335 4.66455 814.53 4.60382 810.305 4.90317C808.976 4.99741 807.562 5.15405 806.193 5.30725C804.761 5.46756 803.369 5.62408 802.184 5.69931C797.37 6.00452 792.829 5.85315 788.647 5.72495C785.866 5.63965 783.241 5.56503 780.811 5.64078C776.358 5.78055 773.949 5.48868 772.17 5.27234C771.249 5.16049 770.497 5.06888 769.714 5.07196C768.998 5.12332 768.273 5.1778 767.564 5.23297C766.913 5.30069 766.241 5.37097 765.608 5.39691C765.56 5.3989 765.512 5.39975 765.465 5.40167C761.491 5.73175 757.591 6.11124 753.719 6.49893C745.021 7.37033 736.435 8.28107 727.325 8.78171C725.362 8.88971 723.351 8.86835 721.305 8.84985C718.799 8.82724 716.234 8.80853 713.643 9.03564C707.466 9.57681 701.249 10.3995 695.135 11.2365C685.943 12.4946 676.961 13.7882 668.634 14.1897C665.884 14.3223 663.19 14.3536 660.487 14.3892C658.98 14.4089 657.465 14.4301 655.94 14.4722C656.285 14.6666 656.48 14.8635 656.661 15.0471C657.034 15.4256 657.356 15.749 658.84 15.893C662.348 16.2327 666.335 16.8068 665.979 17.567C665.882 17.7734 665.999 17.9796 666.125 18.1863C666.442 18.7055 666.764 19.2336 663.612 19.8219C662.204 20.0849 659.33 20.604 656.519 20.9194C655.091 21.0795 653.678 21.1865 652.483 21.1775C651.711 21.1716 651.227 21.0435 650.688 20.9013C649.72 20.6464 648.568 20.3432 645.24 20.6252C644.68 20.6727 644.071 20.7278 643.442 20.7866C640.933 21.0205 638.125 21.2903 637.043 21.1263C635.797 20.9371 636.009 20.5253 636.256 20.0449C636.578 19.4196 636.963 18.6752 634.262 18.1584C633.726 18.0566 632.737 18.119 631.989 18.1665C631.463 18.1999 631.06 18.2246 631.013 18.1802C630.962 18.129 631.114 17.9909 631.309 17.816C631.995 17.2001 633.188 16.1188 627.739 16.7472C626.265 16.918 624.586 17.171 623.081 17.3997C620.863 17.7367 619.022 18.0201 618.756 17.9014C618.656 17.8561 618.582 17.8028 618.519 17.7457C616.75 17.9894 614.984 18.235 613.214 18.4832C610.965 18.9572 607.775 19.3589 603.797 19.872C602.831 19.9966 601.813 20.1291 600.757 20.2696C597.272 20.7792 593.792 21.2961 590.305 21.8227C587.549 22.2858 584.623 22.8263 581.548 23.4684C575.391 24.7548 570.075 26.2027 564.891 27.6314C562.708 28.2334 560.546 28.8331 558.352 29.4171C559.226 29.3133 560.016 29.2283 560.627 29.1844C564.812 28.8843 566.572 29.2868 568.189 29.6563C569.264 29.9024 570.279 30.1346 571.903 30.1415C574.877 30.1551 574.66 30.7187 574.504 31.1335C574.423 31.3489 574.363 31.5243 574.763 31.5645C575.086 31.5963 575.81 31.5272 576.557 31.4565C577.208 31.3948 577.882 31.3318 578.318 31.3322C583.617 31.3396 582.119 32.0082 579.945 32.9782C578.746 33.5136 577.346 34.1424 576.759 34.8044C576.272 35.4859 576.491 35.6309 579.239 35.4734C577.167 36.0759 575.099 36.6806 573.024 37.2893C572.19 37.3932 571.534 37.3025 570.603 37.1283C568.941 36.8163 563.766 37.3894 559.73 37.8508C557.861 38.0638 556.235 38.2511 555.309 38.3091C550.377 38.6212 551.693 37.7823 552.855 37.0409C553.494 36.6333 554.084 36.2567 553.557 36.1198C553.333 36.0611 553.619 35.9235 553.907 35.7838C554.13 35.6758 554.359 35.5657 554.357 35.4894C554.337 34.9358 551.39 34.9808 548.658 35.0282C547.094 35.0552 545.602 35.0812 544.762 34.993C544.506 34.966 544.3 34.9298 544.106 34.8936C543.823 34.8408 543.548 34.7913 543.128 34.7786C542.17 34.7495 540.238 34.9363 538.122 35.1449C537.037 35.2518 535.905 35.3641 534.832 35.4547C533.443 35.572 532.909 35.4392 532.348 35.3008C531.951 35.2031 531.536 35.1035 530.801 35.0864C529.469 35.0557 526.848 35.3988 524.418 35.721C523.36 35.8613 522.337 35.9966 521.472 36.0953C521.12 36.1355 520.946 36.1268 520.901 36.0823C516.908 36.5799 513.115 37.0488 509.386 37.5176C490.791 39.8636 474.652 42.0107 450.992 47.1191C446.499 48.0912 441.667 49.0142 436.795 49.8946C421.217 53.1965 405.71 56.6109 390.219 60.1373C387.239 61.2775 383.565 62.4881 379.21 63.7628C370.94 66.1767 362.484 68.1642 352.323 70.5963C344.878 72.3804 336.556 74.3967 326.973 76.9635C310.77 81.3019 294.342 85.6993 275.534 90.5581C256.868 95.3753 235.525 100.957 220.463 104.909C212.252 107.06 203.635 109.761 195.805 112.244C184.54 115.802 174.523 119.013 168.239 119.915C166.189 120.214 164.122 120.336 162.155 120.443C160.75 120.521 159.373 120.598 158.05 120.737C154.75 121.693 151.237 122.709 147.86 123.693C142.019 125.795 132.806 128.86 123.432 130.843C120.023 131.848 116.423 132.905 113.063 133.898C111.582 134.335 110.126 134.764 108.694 135.188C102.863 136.908 97.105 138.608 91.3053 140.321C88.933 141.023 86.537 141.731 84.1352 142.44C84.1124 142.447 84.0897 142.454 84.0669 142.461C79.2323 143.89 74.3611 145.329 69.5711 146.747C67.5194 147.354 65.4678 147.961 63.4161 148.568C58.2022 150.111 52.9506 151.665 47.7901 153.194C45.0589 154.004 42.3012 154.821 39.5389 155.64C35.0577 156.968 30.5425 158.306 26.0507 159.639C18.7864 161.794 11.557 163.941 4.31389 166.094C3.12943 166.446 2.00653 166.84 1.19856 167.193C0.390956 167.546 -0.0414184 167.83 0.00324821 167.988C0.0482919 168.146 0.568958 168.169 1.44646 168.059C2.32328 167.95 3.4887 167.715 4.68624 167.414C12.0186 165.567 19.3406 163.721 26.6924 161.865C31.2361 160.718 35.8007 159.567 40.3331 158.422C43.1277 157.716 45.9134 157.012 48.6768 156.314C53.8957 154.995 59.2138 153.65 64.4853 152.315C66.5595 151.791 68.6337 151.266 70.7079 150.741C75.5637 149.512 80.5007 148.26 85.4003 147.018C85.4299 147.011 85.4595 147.003 85.4891 146.996C87.8996 146.385 90.3062 145.775 92.6873 145.171C98.5323 143.689 104.336 142.216 110.211 140.724C111.678 140.352 113.169 139.974 114.685 139.588C118.544 138.61 122.581 137.582 126.516 136.584C128.713 136.027 131.043 135.435 133.163 134.9C134.326 134.606 135.513 134.305 136.716 134C164.563 126.954 192.094 120.116 219.938 113.434C247.819 106.74 275.549 100.316 303.443 94.1366C331.405 87.9413 359.258 82.0548 387.252 76.4701C476.845 58.6291 567.161 43.9357 658.059 34.9652C747.428 26.1799 837.386 23.2306 927.265 24.9654C953.123 25.4616 979.651 26.3637 1005.54 27.6081C1031.71 28.8641 1057.34 30.4465 1083.54 32.3873C1091.5 32.9785 1099.66 33.6132 1108.03 34.2978Z" fill="#228379"/>
</svg>
