<svg width="86" height="16" viewBox="0 0 86 16" fill="none" xmlns="http://www.w3.org/2000/svg">
<path d="M7.86215 0L9.62731 5.41707L15.3395 5.41707L10.7182 8.76501L12.4834 14.1821L7.86215 10.8341L3.24089 14.1821L5.00606 8.76501L0.384801 5.41707L6.09699 5.41707L7.86215 0Z" fill="#228379"/>
<path d="M25.431 0L27.1962 5.41707L32.9083 5.41707L28.2871 8.76501L30.0523 14.1821L25.431 10.8341L20.8097 14.1821L22.5749 8.76501L17.9536 5.41707L23.6658 5.41707L25.431 0Z" fill="#F0F0F0"/>
<path d="M42.9998 0L44.765 5.41707L50.4772 5.41707L45.8559 8.76501L47.6211 14.1821L42.9998 10.8341L38.3786 14.1821L40.1438 8.76501L35.5225 5.41707L41.2347 5.41707L42.9998 0Z" fill="#F0F0F0"/>
<path d="M60.5687 0L62.3339 5.41707L68.046 5.41707L63.4248 8.76501L65.1899 14.1821L60.5687 10.8341L55.9474 14.1821L57.7126 8.76501L53.0913 5.41707L58.8035 5.41707L60.5687 0Z" fill="#F0F0F0"/>
<path d="M78.138 0L79.9032 5.41707L85.6154 5.41707L80.9941 8.76501L82.7593 14.1821L78.138 10.8341L73.5168 14.1821L75.2819 8.76501L70.6607 5.41707L76.3729 5.41707L78.138 0Z" fill="#F0F0F0"/>
</svg>
