<svg width="99" height="166" viewBox="0 0 99 166" fill="none" xmlns="http://www.w3.org/2000/svg">
<path d="M30.1343 165.963L5.93717 165.898L5.21438 165.601C2.95607 164.697 1.04606 162.736 0.297086 160.567L0 159.702V83.0459V6.38971L0.297086 5.52463C0.696616 4.34994 1.65162 2.91801 2.5941 2.09163C3.49788 1.26525 5.35552 0.336429 6.44028 0.142925C6.96958 0.0393427 20.1837 0.000641839 49.4791 0.000641839C95.7563 0.000641839 92.6204 -0.0505799 94.2982 0.762139C95.8462 1.51112 97.3954 3.08533 98.1694 4.72443C98.9821 6.45345 98.9184 -0.0505771 98.8922 83.5229L98.8535 159.701L98.5177 160.566C98.3242 161.043 97.9759 161.766 97.7437 162.167C97.137 163.16 95.5366 164.657 94.5042 165.16C92.7877 165.999 94.0272 165.948 73.2369 165.987C62.8355 166.013 43.4395 165.999 30.1343 165.96V165.963ZM92.4917 162.568C94.0921 161.781 95.3829 160.259 95.8086 158.658C95.9634 158.103 96.1182 136.449 95.9896 135.739L95.9247 135.379H49.4154H2.90598L2.93216 147.096L2.97086 158.801L3.38405 159.678C3.61626 160.155 4.09433 160.853 4.45516 161.24C5.13925 161.975 6.49378 162.775 7.37138 162.983C7.66847 163.048 24.8448 163.086 49.6999 163.086L91.5117 163.06L92.4929 162.569L92.4917 162.568ZM51.0146 132.423L95.9498 132.41V82.9833V33.5703L94.8912 33.5316C94.297 33.5054 73.3655 33.5054 48.3682 33.5316L2.90371 33.5577V82.9708C2.90371 122.396 2.94241 132.398 3.07103 132.449C3.14843 132.475 3.87123 132.487 4.64525 132.461C5.43292 132.449 26.287 132.435 51.0135 132.423H51.0146ZM95.9498 19.5036C95.9498 12.7287 95.8986 8.1597 95.8212 7.74765C95.4728 5.94123 94.1946 4.30213 92.4656 3.45071L91.498 2.97378L49.4279 2.99996L7.35772 3.03866L6.3902 3.50307C4.98331 4.17465 4.18311 4.96119 3.5252 6.3032L2.96973 7.40048L2.93102 19.0016L2.90484 30.5903H49.4279H95.9509V19.5048L95.9498 19.5036Z" fill="#228379"/>
<path d="M59.6351 158.451C59.4677 158.038 58.9635 156.954 56.3318 151.314C55.6352 149.83 54.9386 148.295 54.7838 147.934C54.629 147.559 54.4617 147.25 54.4093 147.25C54.3581 147.25 53.9574 149.637 53.5055 152.554C53.0536 155.47 52.6541 157.974 52.6279 158.103C52.563 158.323 52.4219 158.348 51.2859 158.348H50.0088V157.78C50.0088 157.47 50.3059 155.418 50.6542 153.224C51.015 151.043 51.6604 147.134 52.0736 144.539C52.4993 141.945 52.8738 139.7 52.9125 139.545C52.9637 139.313 53.0673 139.248 53.4156 139.248H53.8413L55.1958 142.19C59.3516 151.16 60.2418 153.043 60.3192 152.991C60.3704 152.965 61.8809 149.894 63.6873 146.151L66.9655 139.363L67.4299 139.401L67.8818 139.44L67.9854 140.279C68.0366 140.743 68.6694 144.808 69.3661 149.326C70.0763 153.842 70.6569 157.727 70.6569 157.946V158.345H69.3274H67.9854L67.8431 157.287C67.4299 154.28 66.3337 147.376 66.2689 147.376C66.2176 147.376 65.0691 149.738 61.6874 156.835L60.7198 158.861H60.2679C59.8809 158.861 59.791 158.796 59.6351 158.448V158.451Z" fill="#228379"/>
<path d="M32.0695 158.606C29.9535 158.335 28.1846 157.445 26.624 155.883C25.6816 154.928 25.4107 154.554 24.9201 153.548C24.6105 152.89 24.2622 151.935 24.1461 151.418C23.8751 150.192 23.8751 147.895 24.1461 146.694C24.9075 143.313 27.5267 140.616 30.8823 139.751C31.6176 139.57 32.2892 139.506 33.6699 139.506C35.8246 139.506 36.7284 139.687 38.2514 140.435C39.1415 140.861 39.5672 141.17 40.5359 142.139C41.5558 143.145 41.8005 143.481 42.3036 144.539C43.1163 146.217 43.3485 147.469 43.2711 149.573C43.2062 150.864 43.1288 151.393 42.8579 152.218C42.3673 153.664 41.7356 154.735 40.7544 155.78C38.6122 158.038 35.5025 159.058 32.0695 158.606ZM35.4251 155.754C38.3675 154.888 40.5871 151.998 40.5871 149.017C40.5746 146.062 38.2127 143.055 35.2828 142.281C31.7861 141.339 27.8238 143.817 26.8301 147.572C26.0037 150.643 28.1334 154.424 31.3729 155.637C32.8185 156.179 33.8896 156.205 35.4251 155.754Z" fill="#228379"/>
<path d="M85.5607 158.594C83.6632 158.31 81.9604 157.484 80.566 156.18C78.3589 154.103 77.495 151.767 77.6623 148.359C77.7784 145.818 78.5661 143.971 80.2689 142.281C81.4561 141.094 82.5272 140.422 84.0115 139.933C84.8891 139.649 85.3273 139.585 86.9926 139.533C89.2635 139.468 90.4381 139.688 92.0511 140.476L92.9799 140.94V142.425V143.895H92.5803C92.3607 143.895 91.9475 143.74 91.6515 143.521C89.1872 141.843 86.6705 141.637 84.2187 142.926C81.9729 144.101 80.5148 146.282 80.36 148.669C80.1665 151.844 82.4248 154.89 85.703 155.845C87.5231 156.374 90.0523 155.818 91.7938 154.515C92.0772 154.295 92.3356 154.218 92.6327 154.244L93.0459 154.283L93.0846 155.315C93.1495 156.967 93.0846 157.135 92.2332 157.561C90.2196 158.567 87.8714 158.929 85.5618 158.594H85.5607Z" fill="#228379"/>
<path d="M8.02791 158.258C7.97669 158.219 7.93799 154.038 7.93799 148.979V139.791L8.81559 139.687C9.29252 139.636 10.6357 139.636 11.8092 139.674C13.5132 139.726 14.1062 139.803 14.7641 140.023C16.7515 140.694 17.8739 142.036 18.171 144.101C18.4419 146.089 17.8739 147.909 16.6229 149.057C15.5393 150.038 14.0675 150.464 11.7193 150.477H10.6482V154.413V158.349H9.38358C8.68696 158.349 8.06775 158.31 8.02905 158.259L8.02791 158.258ZM12.2998 147.895C14.055 147.701 15.0874 146.966 15.4869 145.663C15.6292 145.172 15.6292 145.017 15.4221 144.424C14.9315 142.966 13.6794 142.217 11.7443 142.217H10.6471V145.031C10.6471 146.579 10.6858 147.896 10.737 147.935C10.8406 148.051 11.0204 148.051 12.2987 147.896L12.2998 147.895Z" fill="#228379"/>
<path d="M31.5537 127.53C31.5537 127.066 31.5924 127.001 32.1865 126.691C32.9606 126.266 33.8131 125.362 34.1739 124.562L34.4574 123.955L34.4961 105.604L34.5223 87.2655L35.2063 87.1756C35.5672 87.1369 37.245 86.8534 38.9103 86.5689C40.5755 86.2854 42.2522 86.0134 42.6267 85.9883L43.2982 85.9235V87.4715C43.2982 88.9296 43.3244 89.0457 43.5692 89.1755C44.3955 89.6274 55.3001 88.1556 55.3001 87.6013C55.3001 87.3691 53.3776 85.0846 51.9445 83.6003L50.59 82.207L48.3316 82.9811C44.8349 84.207 40.5755 85.2394 37.0401 85.7425C33.878 86.1807 29.4524 86.5939 27.6972 86.5939C26.5749 86.6064 25.7611 86.7612 25.6063 87.0071C25.4514 87.2393 25.464 114.766 25.6063 116.159C25.6837 116.817 25.8385 117.489 25.9807 117.786C26.2903 118.38 27.2453 119.282 27.8782 119.592C28.2778 119.786 28.3301 119.863 28.3301 120.302V120.793H21.1033H13.8765V120.302C13.8765 119.85 13.9152 119.787 14.4445 119.541C15.2834 119.128 15.8764 118.547 16.2122 117.798L16.5218 117.114L16.5605 79.4957C16.5867 42.3941 16.5867 41.8648 16.3408 41.0384C16.0699 40.1733 15.618 39.619 14.4957 38.7801C14.0825 38.483 14.0051 38.3544 14.0051 37.9537V37.4893L24.6125 37.528C46.2805 37.5929 49.1842 37.6316 50.6548 37.8501C56.4361 38.7664 60.5919 40.8312 64.2184 44.6C66.6964 47.1941 68.1545 49.9817 68.9421 53.672C69.2779 55.2075 69.303 55.4784 69.303 58.7179C69.303 61.8026 69.2643 62.267 69.0059 63.4929C68.4254 66.1644 67.4317 68.5263 65.9861 70.7459C65.0823 72.1004 64.6179 72.6684 63.005 74.3075C61.0176 76.3336 59.095 77.8042 56.4497 79.3147L55.3661 79.9476L58.2436 82.8001L61.1212 85.6651L62.3084 85.0846C69.7674 81.4581 75.1229 75.0827 76.5947 68.0755C76.9817 66.2429 77.0716 63.4553 76.8007 61.559C76.0267 56.0361 73.7297 52.6543 69.7287 51.1701C69.3804 51.0414 69.1095 50.8866 69.1095 50.8217C69.1095 50.5247 67.5216 47.4024 66.9798 46.6534C66.5803 46.0854 66.3993 45.6984 66.3993 45.415V45.0018L67.7925 45.0792C73.0194 45.3376 78.8132 48.099 82.22 51.9577C84.5944 54.6292 86.0275 57.4555 86.814 61.0046C87.0724 62.1406 87.0974 62.6437 87.1111 65.8183C87.1111 69.767 87.0212 70.5159 86.2073 72.9939C84.6194 77.8589 81.2775 81.8986 75.9095 85.4864C73.3028 87.2154 68.8249 89.3326 65.3407 90.4674C64.8501 90.6222 64.4631 90.7645 64.4631 90.7895C64.4631 90.8157 64.6691 91.2027 64.9275 91.6546C68.5278 97.9913 70.3866 104.844 70.6188 112.6C70.6837 115.052 70.5152 119.065 70.3092 119.582C70.258 119.737 69.0833 119.763 63.4182 119.763H56.5909V119.298C56.5909 118.899 56.7195 118.692 57.4173 117.944C59.8816 115.337 61.1473 111.194 61.1599 105.761C61.1724 102.264 60.708 99.3732 59.6243 96.0699C59.0438 94.3022 58.2311 92.4047 58.0501 92.4047C57.9989 92.4047 57.2761 92.5208 56.4622 92.6631C53.2364 93.2311 50.4351 93.5145 45.0409 93.7991L43.3631 93.889V108.858C43.3631 123.299 43.3757 123.854 43.6079 124.473C43.9049 125.222 44.7951 126.228 45.5827 126.693C46.0859 126.99 46.1382 127.067 46.1382 127.519V128.022H38.8465H31.5548V127.531L31.5537 127.53ZM29.6949 81.8849C39.5033 80.9424 46.5878 78 52.2143 72.5034C53.7111 71.0452 54.9757 69.4323 56.1242 67.4961C57.5698 65.0568 58.3825 62.9146 58.8606 60.2306C59.1577 58.6177 59.1577 55.0686 58.8731 53.4807C57.9056 48.0603 55.0406 44.7309 50.343 43.5562C48.2781 43.0406 46.2646 42.962 35.6446 43.0007C26.1207 43.0395 25.8498 43.052 25.6689 43.2842C25.5141 43.5039 25.4879 46.3427 25.4879 62.5641C25.4879 75.4173 25.5266 81.6629 25.6165 81.8314C25.7975 82.141 26.7775 82.1535 29.6949 81.8826V81.8849Z" fill="#228379"/>
<path d="M34.4963 64.1804L34.4576 48.4621L34.1867 47.9465C33.7997 47.2499 32.9221 46.3848 32.1344 45.9591C31.5402 45.637 31.489 45.5596 31.4503 45.069C31.4116 44.6046 31.4503 44.5272 31.7087 44.4623C31.876 44.4236 36.0443 44.3974 40.9742 44.4236C49.7627 44.4748 49.9687 44.4748 50.9761 44.7594C52.5378 45.1976 53.544 45.7405 54.6026 46.7468C55.816 47.8953 56.3316 48.6955 56.3316 49.4057V49.9476H50.1497C46.4458 49.9476 43.8266 49.9988 43.6331 50.0762L43.2974 50.1923L43.2712 63.897L43.2325 77.6016L41.3612 78.2345C38.6384 79.1508 35.8634 79.8861 35.1542 79.8861H34.5214L34.4952 64.1804H34.4963Z" fill="#228379"/>
<path d="M73.8821 127.518C73.8821 127.092 73.9857 126.885 74.5275 126.253C76.4887 123.982 77.0692 120.717 76.45 115.439C76.244 113.71 75.495 110.328 74.902 108.444C73.2504 103.294 70.876 98.7779 66.9011 93.2163C66.3332 92.4423 66.1396 92.0553 66.1396 91.732C66.1396 91.3063 66.1522 91.2938 67.2756 90.8806C68.9022 90.2864 68.966 90.3001 70.399 91.4611C75.6646 95.7193 79.3423 99.9264 82.1038 104.856C85.6654 111.205 87.6915 118.781 87.8463 126.278L87.885 127.956L80.8904 127.995L73.8832 128.021V127.518H73.8821Z" fill="#228379"/>
<path d="M39.6196 26.6906C39.5809 26.587 39.5547 26.0452 39.5809 25.4772L39.6196 24.4573L40.3811 24.3674C41.8654 24.1739 42.8591 23.4249 43.2335 22.174C43.4009 21.606 43.4271 20.4575 43.4271 14.6888V7.87512H49.2345H55.0419V17.1668V26.4584H53.7511H52.4603V18.3927V10.3269H49.2345H46.0086V16.1856C46.0086 19.5275 45.9574 22.3288 45.88 22.7158C45.5579 24.4198 44.5505 25.7481 43.0662 26.4197C42.4857 26.6906 42.085 26.768 41.0139 26.8192C39.9303 26.8704 39.6719 26.8454 39.6207 26.6906H39.6196Z" fill="#228379"/>
<path d="M57.7247 26.768C57.6598 26.7168 57.6211 26.1613 57.6211 25.5421V24.4198L58.2403 24.3298C59.6859 24.1238 60.4986 23.6457 60.9892 22.7033C61.4149 21.8644 61.4798 20.6123 61.4923 14.1082V7.87512H67.17H72.8476V17.1668V26.4709L71.5955 26.4322L70.3309 26.3935L70.2922 18.3665L70.266 10.3269H67.1688H64.0716V15.7986C64.0716 18.8696 64.0067 21.7221 63.943 22.2901C63.6721 24.2513 62.5111 25.8392 60.872 26.4584C60.1105 26.7555 57.9034 26.974 57.7235 26.768H57.7247Z" fill="#228379"/>
<path d="M25.5139 26.4584C22.6751 25.7094 19.9911 23.2451 19.0486 20.4962C18.4681 18.8184 18.3645 16.0308 18.8289 14.3666C19.4231 12.1595 21.036 10.056 23.036 8.84378C26.0432 7.0237 30.6885 7.07606 33.6309 8.97241C35.089 9.91489 36.4697 11.5141 37.1151 12.9984C38.2249 15.5664 38.1475 19.2441 36.9216 21.6447C35.7344 23.9804 33.4636 25.8255 30.9594 26.4584C29.5912 26.8067 26.856 26.8067 25.5139 26.4584ZM30.1854 23.8905C32.9992 22.8968 35.0765 20.2765 35.2575 17.49C35.4772 14.3803 32.9866 11.1021 29.7984 10.2632C26.3403 9.35942 22.5067 11.7862 21.423 15.5413C20.4419 18.9356 22.9973 23.0003 26.7911 24.0715C27.6949 24.3298 29.1917 24.2524 30.1854 23.8905Z" fill="#228379"/>
<path d="M83.8192 26.5097C83.3548 26.4197 82.4385 26.0714 81.7669 25.7482C80.722 25.245 80.3737 24.9867 79.3538 23.9668C78.3863 22.9856 78.0767 22.5861 77.6498 21.6823C76.927 20.198 76.7073 19.3079 76.6299 17.5401C76.54 15.5653 76.7847 14.3007 77.5849 12.649C78.1006 11.6166 78.3726 11.2421 79.3527 10.2621C80.2951 9.31962 80.7334 8.98497 81.6235 8.55812C83.1078 7.82281 83.9979 7.61564 85.818 7.52572C88.1025 7.42214 89.9988 7.83533 91.4706 8.77781L92.0773 9.16482V10.5194V11.8739H91.6777C91.4194 11.8739 90.955 11.6804 90.4257 11.3446C89.2259 10.5831 88.0638 10.1836 86.8515 10.1062C85.522 10.0162 84.5807 10.2223 83.2774 10.8677C81.3936 11.8101 79.9741 13.5653 79.4187 15.6165C79.0191 17.1258 79.4448 19.3204 80.4636 20.8684C81.8568 22.9981 84.5545 24.43 86.7616 24.2104C87.8839 24.0943 89.4069 23.5263 90.4917 22.8035C91.0859 22.4039 91.5366 22.1968 91.8075 22.1968H92.207V23.5388V24.8933L91.7813 25.2154C91.1621 25.6799 90.0773 26.1579 88.9163 26.4539C87.7029 26.7635 85.1225 26.7897 83.8192 26.5051V26.5097Z" fill="#228379"/>
<path d="M6.6075 26.3685C6.55628 26.3298 6.51758 22.1489 6.51758 17.0768V7.87512H9.29266C12.2351 7.87512 13.0227 7.9787 14.0938 8.48182C14.9714 8.895 15.9652 9.97863 16.326 10.9336C16.6743 11.8761 16.7904 13.398 16.5969 14.534C16.12 17.2703 14.0164 18.5862 10.119 18.5862H9.09916V22.5223V26.4584H7.89943C7.22785 26.4584 6.64734 26.4197 6.60864 26.3685H6.6075ZM12.2851 15.7473C13.9242 15.0245 14.5435 13.5277 13.8081 12.0434C13.214 10.8688 12.1429 10.3395 10.2977 10.3269H9.09802V13.1407C9.09802 14.6888 9.13672 16.0057 9.2016 16.0569C9.38258 16.263 11.6272 16.0444 12.2863 15.7473H12.2851Z" fill="#228379"/>
</svg>
