<svg width="595" height="337" viewBox="0 0 595 337" fill="none" xmlns="http://www.w3.org/2000/svg">
<path d="M37.6945 87H51.2745L57.0145 86.72L63.3145 86.3C67.4211 86.3 71.4345 87.3733 75.3545 89.52C81.4211 92.9733 85.7611 97.92 88.3745 104.36C90.2411 109.027 91.1745 114.16 91.1745 119.76C91.1745 128.72 89.4945 136.047 86.1345 141.74C83.4278 146.407 79.9745 149.58 75.7745 151.26C74.2811 151.82 72.5078 152.193 70.4545 152.38C68.4945 152.473 67.0945 152.52 66.2545 152.52C61.1211 152.52 57.9011 153.267 56.5945 154.76C55.3811 156.16 54.7745 158.727 54.7745 162.46V175.9V177.72C54.7745 178.747 55.4278 179.633 56.7345 180.38C57.3878 180.753 57.9478 181.173 58.4145 181.64C58.8811 182.107 59.1145 182.713 59.1145 183.46C59.1145 184.487 58.8345 185.093 58.2745 185.28C57.7145 185.467 56.8745 185.56 55.7545 185.56C54.5411 185.56 53.2345 185.467 51.8345 185.28C50.4345 185.093 49.5945 185 49.3145 185H36.1545C35.2211 185 34.0545 185.093 32.6545 185.28C31.2545 185.56 30.3678 185.7 29.9945 185.7C28.7811 185.7 28.0811 185.467 27.8945 185C27.7078 184.44 27.6145 183.74 27.6145 182.9C27.6145 182.62 27.7545 182.34 28.0345 182.06C28.4078 181.687 28.7811 181.36 29.1545 181.08C29.9011 180.427 30.3678 179.727 30.5545 178.98C30.8345 178.233 30.9745 177.58 30.9745 177.02C30.9745 176.273 30.9278 174.873 30.8345 172.82C30.7411 170.767 30.6945 169.133 30.6945 167.92V101.42C30.6945 100.3 30.6945 99.18 30.6945 98.06C30.6945 96.8467 30.7411 95.5867 30.8345 94.28C30.8345 92.7867 30.5545 91.7133 29.9945 91.06C29.3411 90.5 28.9211 90.1267 28.7345 89.94C28.2678 89.4733 28.0345 88.9133 28.0345 88.26C28.0345 86.9533 29.0611 86.3 31.1145 86.3C31.7678 86.3 32.7945 86.44 34.1945 86.72C35.5945 86.9067 36.7611 87 37.6945 87ZM64.8545 131.8V106.04C64.8545 102.867 64.7611 100.58 64.5745 99.18C64.4811 97.6867 64.2478 96.2867 63.8745 94.98C63.5011 93.6733 62.8011 92.6467 61.7745 91.9C60.7478 91.06 59.7678 90.64 58.8345 90.64C57.3411 90.64 56.0811 91.0133 55.0545 91.76C54.1211 92.4133 53.6545 93.5333 53.6545 95.12C53.6545 95.96 53.7945 96.9867 54.0745 98.2C54.3545 99.4133 54.5411 100.627 54.6345 101.84C54.7278 103.053 54.7745 104.22 54.7745 105.34V133.06C54.7745 133.993 54.7278 135.487 54.6345 137.54C54.5411 139.5 54.4945 140.9 54.4945 141.74C54.4945 144.073 54.7745 145.847 55.3345 147.06C55.8945 148.273 56.9211 148.88 58.4145 148.88C61.4011 148.88 63.3145 146.827 64.1545 142.72C64.6211 140.573 64.8545 136.933 64.8545 131.8ZM128.294 85.46C132.401 85.46 136.181 86.2067 139.634 87.7C143.181 89.1 146.354 91.34 149.154 94.42C153.914 99.6467 157.181 106.787 158.954 115.84C160.074 121.347 160.634 127.787 160.634 135.16C160.634 146.547 159.747 155.553 157.974 162.18C155.641 170.86 151.534 177.3 145.654 181.5C140.987 184.767 136.134 186.4 131.094 186.4C126.521 186.4 122.227 185.28 118.214 183.04C112.427 179.773 107.854 174.687 104.494 167.78C100.294 159.007 98.1941 147.527 98.1941 133.34C98.1941 118.78 100.947 107.16 106.454 98.48C111.961 89.8 119.241 85.46 128.294 85.46ZM124.374 106.18C124.374 110.38 124.374 114.58 124.374 118.78C124.374 122.887 124.421 127.04 124.514 131.24V170.44C124.514 173.893 125.214 176.74 126.614 178.98C128.014 181.22 129.927 182.34 132.354 182.34C133.847 182.34 134.967 181.92 135.714 181.08C136.461 180.24 136.834 179.4 136.834 178.56C136.834 177.533 136.601 176.367 136.134 175.06C135.667 173.753 135.341 172.727 135.154 171.98C134.594 170.207 134.314 166.893 134.314 162.04V155.6V135.02L134.594 101.98C134.594 97.22 133.987 93.9533 132.774 92.18C131.654 90.4067 129.974 89.52 127.734 89.52C126.054 89.52 124.747 89.9867 123.814 90.92C122.974 91.76 122.554 92.74 122.554 93.86C123.114 95.26 123.487 96.3333 123.674 97.08C123.954 97.8267 124.141 98.6667 124.234 99.6C124.327 100.533 124.374 102.727 124.374 106.18ZM171.954 166.1V117.52L172.094 94.7C172.094 94.2333 172.001 93.6733 171.814 93.02C171.721 92.3667 171.208 91.76 170.274 91.2C169.341 90.5467 168.874 89.6133 168.874 88.4C168.874 87.1867 169.621 86.58 171.114 86.58L174.754 87L178.534 86.58C179.654 86.58 180.681 86.9067 181.614 87.56C181.894 87.7467 183.901 89.8933 187.634 94C190.248 96.8 192.441 99.5067 194.214 102.12C194.774 103.147 195.334 104.127 195.894 105.06C196.548 105.9 197.294 106.833 198.134 107.86C199.068 108.793 200.094 109.587 201.214 110.24C202.334 110.8 203.408 111.08 204.434 111.08C205.741 111.08 206.954 110.66 208.074 109.82C209.194 108.98 210.548 107.16 212.134 104.36C212.881 103.053 214.608 100.487 217.314 96.66C220.394 92.2733 222.448 89.5667 223.474 88.54C224.874 87.14 226.321 86.44 227.814 86.44C229.214 86.6267 230.241 86.72 230.894 86.72L235.234 86.3C236.448 86.3 237.054 86.86 237.054 87.98C237.054 88.26 236.914 88.5867 236.634 88.96C236.354 89.24 235.934 89.6133 235.374 90.08C234.814 90.5467 234.441 90.9667 234.254 91.34C234.068 91.7133 233.974 92.46 233.974 93.58C233.974 94.7 234.068 98.1067 234.254 103.8C234.441 109.4 234.534 119.947 234.534 135.44C234.534 140.2 234.488 146.407 234.394 154.06C234.301 161.62 234.208 169.087 234.114 176.46C234.114 178.233 234.301 179.353 234.674 179.82C235.421 180.287 235.981 180.66 236.354 180.94C237.194 181.593 237.614 182.433 237.614 183.46C237.614 185.047 236.634 185.84 234.674 185.84C233.928 185.84 232.901 185.7 231.594 185.42C230.288 185.14 229.168 185 228.234 185H216.614C214.841 185 213.441 185.093 212.414 185.28C211.388 185.467 210.641 185.56 210.174 185.56C208.214 185.56 207.234 184.813 207.234 183.32C207.234 182.48 207.608 181.687 208.354 180.94C208.821 180.567 209.288 180.193 209.754 179.82C210.221 179.167 210.454 177.953 210.454 176.18V138.94C210.454 136.327 210.734 133.713 211.294 131.1C211.481 129.98 211.948 128.3 212.694 126.06C213.068 125.033 213.254 124.1 213.254 123.26C213.254 121.58 212.741 120.553 211.714 120.18C210.688 119.713 209.848 119.48 209.194 119.48C208.074 119.48 206.908 120.227 205.694 121.72C204.854 122.653 204.108 123.773 203.454 125.08C201.774 128.067 200.141 131.007 198.554 133.9C196.968 136.513 195.661 137.82 194.634 137.82C193.888 137.82 192.534 136.887 190.574 135.02C188.614 133.153 187.261 131.753 186.514 130.82C185.861 129.887 185.348 129.233 184.974 128.86C184.041 128.02 182.968 127.6 181.754 127.6C180.821 127.6 180.168 127.973 179.794 128.72C179.421 129.467 179.234 130.54 179.234 131.94C179.234 133.06 179.281 134.647 179.374 136.7C179.561 138.66 179.654 139.687 179.654 139.78V169.74C179.654 170.58 179.608 171.513 179.514 172.54C179.421 173.567 179.374 174.173 179.374 174.36C179.374 175.667 179.514 176.693 179.794 177.44C180.168 178.093 180.868 178.653 181.894 179.12C182.921 179.587 183.901 180.007 184.834 180.38C185.954 181.033 186.514 181.92 186.514 183.04C186.514 184.72 185.534 185.56 183.574 185.56C183.014 185.56 181.894 185.467 180.214 185.28C178.628 185.093 177.788 185 177.694 185H174.334C173.681 185 172.934 185.047 172.094 185.14C171.348 185.233 170.601 185.327 169.854 185.42C168.361 185.42 167.614 184.86 167.614 183.74C167.614 182.807 167.941 181.967 168.594 181.22C169.341 180.38 170.041 179.587 170.694 178.84C171.534 177.44 171.954 173.193 171.954 166.1ZM274.72 85.46C278.827 85.46 282.607 86.2067 286.06 87.7C289.607 89.1 292.78 91.34 295.58 94.42C300.34 99.6467 303.607 106.787 305.38 115.84C306.5 121.347 307.06 127.787 307.06 135.16C307.06 146.547 306.173 155.553 304.4 162.18C302.067 170.86 297.96 177.3 292.08 181.5C287.413 184.767 282.56 186.4 277.52 186.4C272.947 186.4 268.653 185.28 264.64 183.04C258.853 179.773 254.28 174.687 250.92 167.78C246.72 159.007 244.62 147.527 244.62 133.34C244.62 118.78 247.373 107.16 252.88 98.48C258.387 89.8 265.667 85.46 274.72 85.46ZM270.8 106.18C270.8 110.38 270.8 114.58 270.8 118.78C270.8 122.887 270.847 127.04 270.94 131.24V170.44C270.94 173.893 271.64 176.74 273.04 178.98C274.44 181.22 276.353 182.34 278.78 182.34C280.273 182.34 281.393 181.92 282.14 181.08C282.887 180.24 283.26 179.4 283.26 178.56C283.26 177.533 283.027 176.367 282.56 175.06C282.093 173.753 281.767 172.727 281.58 171.98C281.02 170.207 280.74 166.893 280.74 162.04V155.6V135.02L281.02 101.98C281.02 97.22 280.413 93.9533 279.2 92.18C278.08 90.4067 276.4 89.52 274.16 89.52C272.48 89.52 271.173 89.9867 270.24 90.92C269.4 91.76 268.98 92.74 268.98 93.86C269.54 95.26 269.913 96.3333 270.1 97.08C270.38 97.8267 270.567 98.6667 270.66 99.6C270.753 100.533 270.8 102.727 270.8 106.18ZM323.28 87H336.72C338.307 87 339.847 86.9067 341.34 86.72C342.834 86.44 345.12 86.3 348.2 86.3C357.16 86.3 364.16 88.54 369.2 93.02C373.494 96.8467 375.64 101.56 375.64 107.16C375.64 110.52 374.8 113.647 373.12 116.54C371.44 119.34 369.387 121.44 366.96 122.84C365.094 123.68 363.227 124.52 361.36 125.36C360.334 126.013 359.82 126.807 359.82 127.74C359.82 128.487 360.147 129.093 360.8 129.56C361.547 129.933 362.294 130.213 363.04 130.4C368.267 131.8 372.094 135.02 374.52 140.06C376.387 143.98 377.32 148.74 377.32 154.34C377.32 162.367 375.967 168.713 373.26 173.38C370.18 178.793 365.094 182.527 358 184.58C356.507 185.047 355.014 185.373 353.52 185.56C352.12 185.747 350.86 185.84 349.74 185.84C347.874 185.84 346.474 185.793 345.54 185.7C340.78 185.233 338.074 185 337.42 185H323.84C322.907 185 322.114 185.047 321.46 185.14C320.807 185.233 320.107 185.373 319.36 185.56L317.26 185.7C315.114 185.7 314.04 185.093 314.04 183.88C314.04 182.667 314.554 181.78 315.58 181.22C316.607 180.66 317.167 180.053 317.26 179.4L317.4 174.64V94.56C317.4 94 317.354 93.3933 317.26 92.74C317.26 92.0867 316.887 91.5267 316.14 91.06C314.834 90.22 314.18 89.3333 314.18 88.4C314.18 87 315.3 86.3 317.54 86.3C318.38 86.3 319.36 86.44 320.48 86.72C321.694 86.9067 322.627 87 323.28 87ZM341.48 103.8V113.46L341.2 117.24C341.014 117.987 340.874 118.733 340.78 119.48C340.687 120.133 340.64 120.927 340.64 121.86C340.64 124.193 341.76 125.36 344 125.36C346.614 125.36 348.527 124.24 349.74 122C350.954 119.76 351.56 115.327 351.56 108.7C351.56 102.633 351.14 98.3867 350.3 95.96C349.087 92.4133 346.754 90.64 343.3 90.64C342.46 90.64 341.667 90.92 340.92 91.48C340.267 92.04 339.94 93.02 339.94 94.42C339.94 94.8867 340.034 95.4933 340.22 96.24C340.407 96.8933 340.594 97.5467 340.78 98.2C341.06 98.8533 341.247 99.6467 341.34 100.58C341.434 101.513 341.48 102.587 341.48 103.8ZM351.56 157.56V149.72C351.56 141.507 350.86 135.953 349.46 133.06C348.434 130.913 346.707 129.84 344.28 129.84C341.387 129.84 339.94 131.007 339.94 133.34C339.94 133.9 340.034 134.833 340.22 136.14C340.5 137.353 340.734 138.52 340.92 139.64C341.107 140.76 341.247 143.093 341.34 146.64C341.434 150.093 341.48 152.613 341.48 154.2C341.48 157.747 341.294 161.433 340.92 165.26C340.547 168.993 340.267 171.653 340.08 173.24C339.987 174.827 339.94 175.947 339.94 176.6C339.94 177.813 340.174 178.84 340.64 179.68C341.107 180.427 342.087 180.8 343.58 180.8C346.847 180.8 349.087 178.093 350.3 172.68C351.14 169.04 351.56 164 351.56 157.56ZM392.046 87H401.286L406.886 86.72L409.686 86.58C410.806 86.58 411.6 86.7667 412.066 87.14C412.533 87.42 412.766 87.9333 412.766 88.68C412.766 89.6133 412.393 90.3133 411.646 90.78C410.993 91.1533 410.573 91.48 410.386 91.76C410.2 91.9467 410.106 92.74 410.106 94.14V99.32V107.02C410.106 108.42 410.06 109.633 409.966 110.66C409.873 111.687 409.78 112.667 409.686 113.6C409.686 113.973 409.78 114.58 409.966 115.42C410.246 116.167 410.76 116.913 411.506 117.66C412.346 118.313 413.326 118.64 414.446 118.64C415.38 118.64 416.08 118.593 416.546 118.5C419.066 118.033 420.606 117.8 421.166 117.8C422.566 117.8 424.106 118.033 425.786 118.5C427.466 118.873 429.286 119.62 431.246 120.74C437.313 124.1 441.513 128.86 443.846 135.02C445.246 138.66 445.946 142.907 445.946 147.76C445.946 152.52 445.526 157.14 444.686 161.62C443.846 166.007 442.4 170.16 440.346 174.08C438.013 178.56 435.073 181.64 431.526 183.32C428.726 184.627 425.086 185.28 420.606 185.28C419.673 185.28 418.133 185.233 415.986 185.14C413.84 185.047 412.16 185 410.946 185H397.786C396.666 185 395.593 185 394.566 185C393.54 185 392.466 185.047 391.346 185.14C390.32 185.327 389.433 185.467 388.686 185.56C388.033 185.747 387.193 185.84 386.166 185.84C384.02 185.84 382.946 185.093 382.946 183.6C382.946 182.947 383.273 182.293 383.926 181.64C384.393 181.36 384.86 181.033 385.326 180.66C385.793 180.193 386.026 179.213 386.026 177.72V105.48C386.026 103.707 386.026 102.073 386.026 100.58C386.026 98.9933 386.073 97.5 386.166 96.1C386.166 94.14 386.026 92.88 385.746 92.32C385.466 91.6667 384.953 91.1067 384.206 90.64C383.46 90.08 383.086 89.38 383.086 88.54C383.086 87.14 383.88 86.44 385.466 86.44L388.266 86.86C388.733 86.9533 389.386 87 390.226 87C391.066 87 391.673 87 392.046 87ZM410.106 137.26V164.28V166.38C410.106 168.153 410.106 169.88 410.106 171.56C409.826 172.68 409.64 173.52 409.546 174.08C409.453 174.547 409.406 174.967 409.406 175.34C409.406 175.713 409.406 175.993 409.406 176.18C409.406 177.953 409.78 179.213 410.526 179.96C411.366 180.613 412.346 180.94 413.466 180.94C416.173 180.94 417.946 180.1 418.786 178.42C419.626 176.647 420.046 173.613 420.046 169.32C420.046 167.453 420 165.727 419.906 164.14C419.906 162.46 419.906 160.92 419.906 159.52V157.84V139.78C419.906 133.993 419.86 130.68 419.766 129.84C419.206 124.987 417.34 122.56 414.166 122.56C410.806 122.56 409.126 123.96 409.126 126.76C409.406 128.44 409.64 129.98 409.826 131.38C410.013 132.78 410.106 134.74 410.106 137.26ZM458.686 87H467.086C468.486 87 469.606 86.9533 470.446 86.86C473.806 86.4867 475.813 86.3 476.466 86.3C478.613 86.3 479.686 86.9533 479.686 88.26C479.686 88.9133 479.406 89.4267 478.846 89.8C478.38 90.08 477.96 90.4067 477.586 90.78C477.213 91.06 477.026 92.18 477.026 94.14C477.12 96.0067 477.166 99.46 477.166 104.5C477.26 109.447 477.306 114.02 477.306 118.22V150.84C477.306 155.413 477.213 160.547 477.026 166.24C476.933 171.933 476.886 174.92 476.886 175.2C476.886 177.533 477.12 179.027 477.586 179.68C478.426 180.333 479.08 180.893 479.546 181.36C480.013 181.827 480.246 182.433 480.246 183.18C480.246 184.673 479.36 185.42 477.586 185.42C476.84 185.42 475.72 185.327 474.226 185.14C472.733 185.047 471.66 185 471.006 185H460.086L456.166 185.14L453.086 185.42C451.313 185.42 450.426 184.72 450.426 183.32C450.426 182.667 450.66 182.153 451.126 181.78C451.686 181.313 452.246 180.847 452.806 180.38C453.273 179.82 453.506 178.607 453.506 176.74L453.226 150.14V118.78L453.506 96.66C453.506 94.42 453.46 92.9733 453.366 92.32C453.273 91.6667 453.04 91.1533 452.666 90.78C452.013 90.4067 451.5 90.08 451.126 89.8C450.846 89.52 450.706 89.0533 450.706 88.4C450.706 87.0933 451.686 86.44 453.646 86.44C453.833 86.44 454.486 86.5333 455.606 86.72C456.726 86.9067 457.753 87 458.686 87ZM501.016 87H521.176C521.829 87 522.342 86.9067 522.716 86.72C523.182 86.5333 523.649 86.3 524.116 86.02C524.769 85.8333 525.796 85.74 527.196 85.74C528.409 85.74 529.296 85.88 529.856 86.16C530.509 86.3467 530.836 87.5133 530.836 89.66L531.536 94.56C531.629 95.2133 531.909 96.4733 532.376 98.34C532.936 100.207 533.216 101.653 533.216 102.68C533.216 104.08 533.169 104.873 533.076 105.06C532.702 105.993 531.629 106.46 529.856 106.46C527.616 106.46 526.076 105.247 525.236 102.82C524.769 100.953 524.442 99.6933 524.256 99.04C523.602 96.8933 522.482 95.0267 520.896 93.44C519.309 91.8533 517.722 91.06 516.136 91.06C514.736 91.06 513.709 91.48 513.056 92.32C512.496 93.0667 512.216 94.0933 512.216 95.4C512.216 96.24 512.262 97.1267 512.356 98.06C512.449 98.9 512.542 99.74 512.636 100.58V118.64C512.636 120.787 512.822 122.327 513.196 123.26C514.036 125.313 515.669 126.34 518.096 126.34C519.122 126.34 519.869 126.2 520.336 125.92C520.896 125.547 521.316 124.987 521.596 124.24C521.969 123.4 522.249 122.747 522.436 122.28C522.622 121.72 523.649 121.44 525.516 121.44C526.822 121.44 527.756 121.673 528.316 122.14C528.876 122.513 529.342 123.773 529.716 125.92C530.182 128.067 531.162 130.587 532.656 133.48C533.309 134.787 533.636 135.72 533.636 136.28C533.636 137.493 533.356 138.52 532.796 139.36C532.236 140.107 531.162 140.48 529.576 140.48C527.989 140.48 526.729 139.687 525.796 138.1C525.142 136.7 524.489 135.3 523.836 133.9C522.529 131.567 520.616 130.4 518.096 130.4C515.856 130.4 514.362 131.1 513.616 132.5C512.869 133.9 512.496 135.673 512.496 137.82C512.589 139.5 512.636 140.667 512.636 141.32V167.64C512.636 168.76 512.589 169.927 512.496 171.14C512.402 172.353 512.309 173.567 512.216 174.78C512.216 176.833 512.542 178.373 513.196 179.4C513.849 180.427 515.202 180.94 517.256 180.94C518.842 180.94 520.336 180.287 521.736 178.98C523.136 177.673 524.209 175.573 524.956 172.68C525.796 169.787 526.449 167.92 526.916 167.08C527.942 165.12 529.482 164.14 531.536 164.14C532.189 164.14 532.656 164.187 532.936 164.28C534.149 164.747 534.756 165.773 534.756 167.36C534.756 168.013 534.616 168.9 534.336 170.02C532.936 174.593 532.236 179.073 532.236 183.46C532.236 185.047 532.049 186.027 531.676 186.4C531.396 186.867 530.696 187.1 529.576 187.1C528.082 187.1 526.962 186.913 526.216 186.54C525.562 186.26 524.816 185.933 523.976 185.56C523.229 185.187 521.922 185 520.056 185H517.396H493.876C492.849 185 491.869 185.047 490.936 185.14C490.096 185.233 489.256 185.327 488.416 185.42C486.736 185.42 485.896 184.58 485.896 182.9C485.896 182.06 486.269 181.407 487.016 180.94C487.762 180.38 488.229 179.96 488.416 179.68C488.696 179.307 488.836 178.513 488.836 177.3C488.836 176.46 488.789 174.827 488.696 172.4C488.602 169.88 488.556 167.827 488.556 166.24V98.06V94.14C488.556 92.46 488.416 91.3867 488.136 90.92C487.949 90.4533 487.576 90.1267 487.016 89.94C486.456 89.66 486.176 89.1467 486.176 88.4C486.176 87 487.202 86.3 489.256 86.3L492.616 86.58C494.762 86.86 497.562 87 501.016 87ZM82.0334 227H93.2334C94.4468 227 95.5201 226.953 96.4534 226.86C97.3868 226.767 98.3201 226.673 99.2534 226.58C100.933 226.58 101.773 227.28 101.773 228.68C101.773 228.867 101.307 229.66 100.373 231.06C99.9068 231.807 99.6734 232.6 99.6734 233.44V234.84V306.52V310.44C99.6734 314.64 100.093 317.487 100.933 318.98C101.773 320.38 103.08 321.08 104.853 321.08C108.587 321.08 110.453 318.607 110.453 313.66L110.033 307.36C109.94 305.867 109.847 304.56 109.753 303.44C109.753 302.32 109.753 301.387 109.753 300.64V298.4V234.98C109.753 233.113 109.193 231.807 108.073 231.06C107.047 230.22 106.533 229.287 106.533 228.26C106.533 227.14 107.607 226.58 109.753 226.58C110.78 226.58 111.807 226.673 112.833 226.86C113.86 226.953 114.747 227 115.493 227H128.793C129.54 227 130.333 226.953 131.173 226.86C132.107 226.767 133.04 226.673 133.973 226.58C135.653 226.58 136.493 227.14 136.493 228.26C136.493 229.1 136.12 229.893 135.373 230.64C134.627 231.2 134.16 231.667 133.973 232.04C133.88 232.413 133.833 233.673 133.833 235.82V298.82C133.833 300.313 133.693 302.693 133.413 305.96C133.133 309.227 132.993 311.793 132.993 313.66C132.993 316.553 133.647 318.56 134.953 319.68C135.793 320.427 136.96 320.8 138.453 320.8C140.507 320.8 141.907 320.193 142.653 318.98C143.493 317.673 143.913 314.687 143.913 310.02V234.7C143.913 234.047 143.913 233.347 143.913 232.6C143.727 232.04 143.213 231.48 142.373 230.92C141.533 230.36 141.113 229.567 141.113 228.54C141.113 227.233 141.953 226.58 143.633 226.58C144.473 226.58 145.687 226.673 147.273 226.86C148.86 226.953 149.7 227 149.793 227H160.713C161.46 227 162.393 226.953 163.513 226.86C164.633 226.767 165.893 226.627 167.293 226.44C169.253 226.44 170.233 227.14 170.233 228.54C170.233 229.193 169.813 229.94 168.973 230.78C167.853 231.527 167.293 232.927 167.293 234.98C167.293 238.9 167.387 245.06 167.573 253.46C167.853 261.767 167.993 266.853 167.993 268.72C167.993 273.76 167.9 281.227 167.713 291.12C167.527 301.013 167.387 309.927 167.293 317.86C167.107 319.633 167.34 320.753 167.993 321.22C168.647 321.687 169.113 322.013 169.393 322.2C169.767 322.387 169.953 322.807 169.953 323.46C169.953 324.86 168.927 325.56 166.873 325.56L162.393 325.14L158.053 325H146.153C143.353 325 138.687 325.093 132.153 325.28C125.62 325.467 122.167 325.56 121.793 325.56C119.46 325.56 115.587 325.467 110.173 325.28C104.76 325.093 101.867 325 101.493 325H83.5734L76.0134 325.28C75.0801 325.28 74.3801 325.093 73.9134 324.72C73.5401 324.347 73.3534 323.973 73.3534 323.6C73.3534 322.76 73.8668 322.013 74.8934 321.36C75.4534 321.08 75.8268 320.847 76.0134 320.66C76.2001 320.38 76.2934 319.727 76.2934 318.7C76.1068 310.767 75.9201 301.9 75.7334 292.1C75.6401 282.207 75.5934 274.413 75.5934 268.72L75.8734 251.78V245.9C75.8734 243.38 75.9201 241.327 76.0134 239.74C76.1068 238.06 76.2001 236.473 76.2934 234.98C76.2934 233.58 76.0134 232.553 75.4534 231.9C74.7068 231.247 74.1001 230.733 73.6334 230.36C73.2601 229.893 73.0734 229.333 73.0734 228.68C73.0734 227.28 74.1468 226.58 76.2934 226.58C77.1334 226.58 78.1134 226.673 79.2334 226.86C80.3534 226.953 81.2868 227 82.0334 227ZM225.726 325H218.026L212.986 325.42C212.333 325.513 211.679 325.607 211.026 325.7C210.466 325.887 209.719 325.98 208.786 325.98C206.639 325.98 205.566 325.28 205.566 323.88C205.566 322.48 206.219 321.5 207.526 320.94C208.833 320.287 209.626 319.82 209.906 319.54C210.559 318.887 210.886 317.86 210.886 316.46V313.52C210.513 310.067 208.693 307.593 205.426 306.1C203.373 305.167 201.133 304.7 198.706 304.7C194.786 304.7 191.986 305.913 190.306 308.34C189.186 310.02 188.626 312.12 188.626 314.64C188.626 316.693 189.093 318.233 190.026 319.26C190.586 319.913 191.473 320.52 192.686 321.08C193.899 321.547 194.506 322.293 194.506 323.32C194.413 324.16 194.366 324.72 194.366 325C194.366 325.56 193.619 325.84 192.126 325.84L188.206 325.42L183.726 325L177.706 325.42C177.239 325.42 176.819 325.373 176.446 325.28C175.139 324.907 174.486 324.207 174.486 323.18C174.486 321.873 175.186 320.987 176.586 320.52C178.079 320.053 179.106 319.447 179.666 318.7C180.226 317.86 180.693 315.993 181.066 313.1C181.533 310.207 181.906 307.547 182.186 305.12C183.773 293.267 185.499 282.86 187.366 273.9C188.673 267.367 190.119 261.347 191.706 255.84C193.666 248.84 194.693 245.153 194.786 244.78C195.346 242.073 195.626 240.02 195.626 238.62C195.626 236.847 195.299 235.633 194.646 234.98C194.086 234.327 193.059 233.673 191.566 233.02C190.166 232.273 189.466 231.107 189.466 229.52C189.466 228.587 189.839 227.887 190.586 227.42C191.333 226.953 192.219 226.72 193.246 226.72C193.993 226.72 195.346 226.813 197.306 227C199.359 227.187 200.479 227.28 200.666 227.28L204.026 227C204.399 226.907 205.986 226.673 208.786 226.3C211.679 225.927 213.733 225.74 214.946 225.74C216.533 225.74 217.653 225.973 218.306 226.44C219.053 226.813 219.753 227.84 220.406 229.52C222.086 233.627 224.139 243.193 226.566 258.22C229.086 273.247 231.279 289.253 233.146 306.24C233.706 311.56 233.986 314.267 233.986 314.36C234.546 317.253 235.526 319.167 236.926 320.1C237.486 320.473 238.093 320.8 238.746 321.08C239.586 321.64 240.006 322.34 240.006 323.18C240.006 323.833 239.726 324.44 239.166 325C238.606 325.56 237.719 325.84 236.506 325.84C235.759 325.84 235.106 325.747 234.546 325.56C233.986 325.467 233.379 325.327 232.726 325.14C232.073 325.047 231.279 325 230.346 325C229.506 325 228.853 325 228.386 325H225.726ZM199.406 300.64H202.346C204.959 300.64 206.733 299.8 207.666 298.12C208.226 297.093 208.506 295.647 208.506 293.78C208.506 291.633 208.413 289.86 208.226 288.46C208.039 287.06 207.293 282.86 205.986 275.86C205.613 273.9 205.286 272.08 205.006 270.4C204.726 268.627 204.586 267.04 204.586 265.64V262.84C204.586 261.72 204.446 260.88 204.166 260.32C203.606 259.2 202.673 258.64 201.366 258.64C198.566 258.64 196.186 263.773 194.226 274.04C192.733 281.973 191.986 288.32 191.986 293.08C191.986 296.347 192.919 298.54 194.786 299.66C195.813 300.313 197.353 300.64 199.406 300.64ZM254.325 227H267.905L273.645 226.72L279.945 226.3C284.052 226.3 288.065 227.373 291.985 229.52C298.052 232.973 302.392 237.92 305.005 244.36C306.872 249.027 307.805 254.16 307.805 259.76C307.805 268.72 306.125 276.047 302.765 281.74C300.059 286.407 296.605 289.58 292.405 291.26C290.912 291.82 289.139 292.193 287.085 292.38C285.125 292.473 283.725 292.52 282.885 292.52C277.752 292.52 274.532 293.267 273.225 294.76C272.012 296.16 271.405 298.727 271.405 302.46V315.9V317.72C271.405 318.747 272.059 319.633 273.365 320.38C274.019 320.753 274.579 321.173 275.045 321.64C275.512 322.107 275.745 322.713 275.745 323.46C275.745 324.487 275.465 325.093 274.905 325.28C274.345 325.467 273.505 325.56 272.385 325.56C271.172 325.56 269.865 325.467 268.465 325.28C267.065 325.093 266.225 325 265.945 325H252.785C251.852 325 250.685 325.093 249.285 325.28C247.885 325.56 246.999 325.7 246.625 325.7C245.412 325.7 244.712 325.467 244.525 325C244.339 324.44 244.245 323.74 244.245 322.9C244.245 322.62 244.385 322.34 244.665 322.06C245.039 321.687 245.412 321.36 245.785 321.08C246.532 320.427 246.999 319.727 247.185 318.98C247.465 318.233 247.605 317.58 247.605 317.02C247.605 316.273 247.559 314.873 247.465 312.82C247.372 310.767 247.325 309.133 247.325 307.92V241.42C247.325 240.3 247.325 239.18 247.325 238.06C247.325 236.847 247.372 235.587 247.465 234.28C247.465 232.787 247.185 231.713 246.625 231.06C245.972 230.5 245.552 230.127 245.365 229.94C244.899 229.473 244.665 228.913 244.665 228.26C244.665 226.953 245.692 226.3 247.745 226.3C248.399 226.3 249.425 226.44 250.825 226.72C252.225 226.907 253.392 227 254.325 227ZM281.485 271.8V246.04C281.485 242.867 281.392 240.58 281.205 239.18C281.112 237.687 280.879 236.287 280.505 234.98C280.132 233.673 279.432 232.647 278.405 231.9C277.379 231.06 276.399 230.64 275.465 230.64C273.972 230.64 272.712 231.013 271.685 231.76C270.752 232.413 270.285 233.533 270.285 235.12C270.285 235.96 270.425 236.987 270.705 238.2C270.985 239.413 271.172 240.627 271.265 241.84C271.359 243.053 271.405 244.22 271.405 245.34V273.06C271.405 273.993 271.359 275.487 271.265 277.54C271.172 279.5 271.125 280.9 271.125 281.74C271.125 284.073 271.405 285.847 271.965 287.06C272.525 288.273 273.552 288.88 275.045 288.88C278.032 288.88 279.945 286.827 280.785 282.72C281.252 280.573 281.485 276.933 281.485 271.8ZM370.265 325H361.025C359.158 325 357.712 325.047 356.685 325.14C355.752 325.327 354.678 325.42 353.465 325.42C352.532 325.42 351.738 325.28 351.085 325C350.432 324.72 350.105 324.067 350.105 323.04C350.105 322.387 350.385 321.78 350.945 321.22C351.505 320.567 351.878 320.147 352.065 319.96C352.718 319.307 353.045 317.813 353.045 315.48C353.045 314.92 352.998 313.847 352.905 312.26C352.812 310.58 352.765 309.273 352.765 308.34V278.94C352.765 276.7 352.905 273.713 353.185 269.98C353.465 266.247 353.838 263.587 354.305 262C354.398 261.72 354.492 261.207 354.585 260.46C354.772 259.713 354.865 259.2 354.865 258.92C354.865 257.52 354.352 256.82 353.325 256.82C352.578 256.82 351.925 257.287 351.365 258.22C350.805 259.153 350.432 259.993 350.245 260.74C349.218 263.82 348.192 266.573 347.165 269C345.205 273.667 343.245 278.287 341.285 282.86C340.538 284.82 340.025 286.547 339.745 288.04C339.465 289.533 339.325 290.887 339.325 292.1C339.325 293.78 339.372 295.32 339.465 296.72C339.558 298.027 339.652 299.287 339.745 300.5V315.76C339.745 316.693 339.745 317.533 339.745 318.28C339.838 319.027 340.352 319.68 341.285 320.24C341.565 320.427 341.892 320.707 342.265 321.08C342.732 321.453 342.965 322.06 342.965 322.9C342.965 324.767 342.125 325.7 340.445 325.7C339.885 325.7 338.765 325.56 337.085 325.28C335.498 325.093 334.425 325 333.865 325H324.765C322.432 325 320.612 325.14 319.305 325.42C317.998 325.7 316.878 325.84 315.945 325.84C314.265 325.84 313.425 325.14 313.425 323.74C313.425 322.247 313.892 321.313 314.825 320.94C315.852 320.473 316.365 319.073 316.365 316.74C316.365 310.673 316.225 304 315.945 296.72C315.758 289.347 315.665 284.867 315.665 283.28C315.665 276.187 315.712 268.673 315.805 260.74C315.992 252.807 316.178 243.847 316.365 233.86C316.365 232.18 316.038 231.107 315.385 230.64C314.078 229.613 313.425 228.867 313.425 228.4C313.425 227.28 314.265 226.72 315.945 226.72C316.785 226.72 317.718 226.767 318.745 226.86C319.772 226.953 320.332 227 320.425 227H334.845C336.338 227 337.458 226.953 338.205 226.86C338.952 226.673 339.652 226.58 340.305 226.58C342.172 226.58 343.105 227.28 343.105 228.68C343.105 229.24 342.965 229.707 342.685 230.08C342.405 230.36 341.938 230.78 341.285 231.34C340.725 231.62 340.305 231.993 340.025 232.46C339.838 232.833 339.745 233.533 339.745 234.56V254.16C339.745 256.587 339.605 259.153 339.325 261.86C339.138 264.473 339.045 266.293 339.045 267.32C339.045 268.44 339.512 269 340.445 269C341.285 269 342.218 267.647 343.245 264.94C343.992 262.887 344.785 260.787 345.625 258.64C347.865 253.133 350.152 247.58 352.485 241.98C353.418 239.553 353.885 237.08 353.885 234.56C353.885 234.093 353.838 233.533 353.745 232.88C353.745 232.133 353.278 231.433 352.345 230.78C351.412 230.127 350.945 229.38 350.945 228.54C350.945 227.14 351.878 226.44 353.745 226.44L356.405 226.72L359.205 227H372.785C373.532 227 374.232 226.953 374.885 226.86C375.632 226.767 376.378 226.673 377.125 226.58C378.525 226.58 379.225 227.187 379.225 228.4C379.225 229.52 378.758 230.267 377.825 230.64C376.892 231.2 376.425 232.413 376.425 234.28C376.425 237.08 376.472 240.347 376.565 244.08C376.658 247.813 376.752 251.547 376.845 255.28V270.82C376.845 282.487 376.752 291.26 376.565 297.14C376.378 303.02 376.192 309.553 376.005 316.74C376.005 318.42 376.658 319.773 377.965 320.8C378.805 321.453 379.225 322.293 379.225 323.32C379.225 324.813 378.245 325.56 376.285 325.56C375.258 325.56 374.372 325.467 373.625 325.28C372.878 325.093 371.758 325 370.265 325ZM393.052 227H406.772L409.572 226.72L412.232 226.44C413.072 226.44 413.772 226.533 414.332 226.72C414.892 226.907 415.172 227.42 415.172 228.26C415.172 229.007 414.659 229.753 413.632 230.5C413.166 230.873 412.839 231.34 412.652 231.9C412.466 232.46 412.372 233.067 412.372 233.72C412.466 235.12 412.512 236.193 412.512 236.94V249.26C412.512 249.913 412.466 250.66 412.372 251.5C412.279 252.34 412.186 253.18 412.092 254.02C412.092 254.393 412.186 254.907 412.372 255.56C412.559 256.213 412.979 256.773 413.632 257.24C414.286 257.707 415.079 257.94 416.012 257.94C416.759 257.94 417.459 257.8 418.112 257.52C418.859 257.24 419.606 256.867 420.352 256.4C423.059 254.72 425.159 252.48 426.652 249.68C427.866 247.44 428.939 244.267 429.872 240.16C430.806 235.96 431.972 232.787 433.372 230.64C435.799 226.907 439.112 225.04 443.312 225.04C445.552 225.04 447.466 225.74 449.052 227.14C450.639 228.447 451.432 230.547 451.432 233.44C451.432 235.773 450.686 237.593 449.192 238.9C447.792 240.207 446.159 240.86 444.292 240.86C443.546 240.86 442.612 240.58 441.492 240.02C440.372 239.46 439.579 239.18 439.112 239.18C438.086 239.18 437.059 239.787 436.032 241C435.006 242.12 434.492 243.707 434.492 245.76C434.492 247.253 434.679 248.7 435.052 250.1C435.519 251.5 436.312 253.32 437.432 255.56C441.259 262.84 443.686 268.02 444.712 271.1C447.326 278.847 448.632 288.087 448.632 298.82C448.632 302.833 448.679 306.193 448.772 308.9C448.866 311.513 449.192 314.5 449.752 317.86C450.032 319.167 450.406 320.007 450.872 320.38C451.339 320.66 451.852 320.94 452.412 321.22C453.066 321.5 453.392 322.107 453.392 323.04C453.392 323.973 453.112 324.627 452.552 325C451.992 325.28 451.246 325.42 450.312 325.42C449.566 325.42 448.726 325.373 447.792 325.28C446.859 325.187 445.926 325.093 444.992 325H432.812L429.032 325.28L425.392 325.7C424.459 325.7 423.712 325.42 423.152 324.86C422.592 324.3 422.312 323.693 422.312 323.04C422.312 322.387 422.546 321.873 423.012 321.5C423.479 321.033 423.946 320.613 424.412 320.24C424.786 319.773 424.972 318.887 424.972 317.58C424.972 310.86 424.506 302.04 423.572 291.12C422.732 280.107 421.706 272.36 420.492 267.88C420.026 266.2 419.466 264.893 418.812 263.96C417.786 262.653 416.479 262 414.892 262C412.559 262 411.392 263.12 411.392 265.36C411.392 266.013 411.486 266.62 411.672 267.18C411.859 267.74 411.999 268.207 412.092 268.58C412.186 268.953 412.232 269.7 412.232 270.82C412.326 271.847 412.419 272.78 412.512 273.62V316.74C412.512 318.327 412.652 319.307 412.932 319.68C413.586 320.053 414.099 320.38 414.472 320.66C415.312 321.313 415.732 322.153 415.732 323.18C415.732 324.673 414.706 325.42 412.652 325.42C411.159 325.42 409.992 325.327 409.152 325.14C408.312 325.047 407.566 325 406.912 325H393.332C392.026 325 390.766 325.093 389.552 325.28C388.432 325.56 387.732 325.7 387.452 325.7C385.679 325.7 384.792 324.86 384.792 323.18C384.792 322.247 385.119 321.547 385.772 321.08C386.426 320.613 387.126 320.1 387.872 319.54C388.246 318.98 388.479 318.187 388.572 317.16C388.759 316.04 388.852 314.593 388.852 312.82C388.852 311.327 388.759 306.193 388.572 297.42C388.479 288.553 388.432 280.713 388.432 273.9L388.572 256.68V249.12C388.572 246.507 388.572 243.94 388.572 241.42C388.666 238.9 388.759 236.427 388.852 234C388.852 232.133 388.339 230.827 387.312 230.08C386.286 229.333 385.772 228.82 385.772 228.54C385.772 227.327 386.799 226.72 388.852 226.72C389.319 226.72 389.879 226.767 390.532 226.86C391.279 226.86 392.119 226.907 393.052 227ZM512.999 325H503.759C501.893 325 500.446 325.047 499.419 325.14C498.486 325.327 497.413 325.42 496.199 325.42C495.266 325.42 494.473 325.28 493.819 325C493.166 324.72 492.839 324.067 492.839 323.04C492.839 322.387 493.119 321.78 493.679 321.22C494.239 320.567 494.613 320.147 494.799 319.96C495.453 319.307 495.779 317.813 495.779 315.48C495.779 314.92 495.733 313.847 495.639 312.26C495.546 310.58 495.499 309.273 495.499 308.34V278.94C495.499 276.7 495.639 273.713 495.919 269.98C496.199 266.247 496.573 263.587 497.039 262C497.133 261.72 497.226 261.207 497.319 260.46C497.506 259.713 497.599 259.2 497.599 258.92C497.599 257.52 497.086 256.82 496.059 256.82C495.313 256.82 494.659 257.287 494.099 258.22C493.539 259.153 493.166 259.993 492.979 260.74C491.953 263.82 490.926 266.573 489.899 269C487.939 273.667 485.979 278.287 484.019 282.86C483.273 284.82 482.759 286.547 482.479 288.04C482.199 289.533 482.059 290.887 482.059 292.1C482.059 293.78 482.106 295.32 482.199 296.72C482.293 298.027 482.386 299.287 482.479 300.5V315.76C482.479 316.693 482.479 317.533 482.479 318.28C482.573 319.027 483.086 319.68 484.019 320.24C484.299 320.427 484.626 320.707 484.999 321.08C485.466 321.453 485.699 322.06 485.699 322.9C485.699 324.767 484.859 325.7 483.179 325.7C482.619 325.7 481.499 325.56 479.819 325.28C478.233 325.093 477.159 325 476.599 325H467.499C465.166 325 463.346 325.14 462.039 325.42C460.733 325.7 459.613 325.84 458.679 325.84C456.999 325.84 456.159 325.14 456.159 323.74C456.159 322.247 456.626 321.313 457.559 320.94C458.586 320.473 459.099 319.073 459.099 316.74C459.099 310.673 458.959 304 458.679 296.72C458.493 289.347 458.399 284.867 458.399 283.28C458.399 276.187 458.446 268.673 458.539 260.74C458.726 252.807 458.913 243.847 459.099 233.86C459.099 232.18 458.773 231.107 458.119 230.64C456.813 229.613 456.159 228.867 456.159 228.4C456.159 227.28 456.999 226.72 458.679 226.72C459.519 226.72 460.453 226.767 461.479 226.86C462.506 226.953 463.066 227 463.159 227H477.579C479.073 227 480.193 226.953 480.939 226.86C481.686 226.673 482.386 226.58 483.039 226.58C484.906 226.58 485.839 227.28 485.839 228.68C485.839 229.24 485.699 229.707 485.419 230.08C485.139 230.36 484.673 230.78 484.019 231.34C483.459 231.62 483.039 231.993 482.759 232.46C482.573 232.833 482.479 233.533 482.479 234.56V254.16C482.479 256.587 482.339 259.153 482.059 261.86C481.873 264.473 481.779 266.293 481.779 267.32C481.779 268.44 482.246 269 483.179 269C484.019 269 484.953 267.647 485.979 264.94C486.726 262.887 487.519 260.787 488.359 258.64C490.599 253.133 492.886 247.58 495.219 241.98C496.153 239.553 496.619 237.08 496.619 234.56C496.619 234.093 496.573 233.533 496.479 232.88C496.479 232.133 496.013 231.433 495.079 230.78C494.146 230.127 493.679 229.38 493.679 228.54C493.679 227.14 494.613 226.44 496.479 226.44L499.139 226.72L501.939 227H515.519C516.266 227 516.966 226.953 517.619 226.86C518.366 226.767 519.113 226.673 519.859 226.58C521.259 226.58 521.959 227.187 521.959 228.4C521.959 229.52 521.493 230.267 520.559 230.64C519.626 231.2 519.159 232.413 519.159 234.28C519.159 237.08 519.206 240.347 519.299 244.08C519.393 247.813 519.486 251.547 519.579 255.28V270.82C519.579 282.487 519.486 291.26 519.299 297.14C519.113 303.02 518.926 309.553 518.739 316.74C518.739 318.42 519.393 319.773 520.699 320.8C521.539 321.453 521.959 322.293 521.959 323.32C521.959 324.813 520.979 325.56 519.019 325.56C517.993 325.56 517.106 325.467 516.359 325.28C515.613 325.093 514.493 325 512.999 325Z" fill="#530400"/>
<path d="M187.83 10.293L188.644 10.4092V10.4424C188.721 10.4535 188.799 10.4701 188.876 10.4922C190.414 10.8906 191.748 11.6488 192.877 12.7666C193.718 13.6188 194.349 14.5762 194.77 15.6387C195.19 16.7012 195.4 17.7913 195.4 18.9092C195.4 20.016 195.19 21.1006 194.77 22.1631C194.349 23.2256 193.718 24.1885 192.877 25.0518C191.87 26.0479 190.691 26.7617 189.341 27.1934V27.21L188.876 27.3262C188.179 27.5033 187.465 27.5918 186.734 27.5918C186.037 27.5918 185.351 27.5088 184.676 27.3428L184.593 27.3262C183.065 26.9277 181.732 26.1696 180.592 25.0518C180.559 25.0075 180.52 24.9688 180.476 24.9355V30.8125C180.476 31.0892 180.575 31.3271 180.774 31.5264C180.974 31.7256 181.212 31.8307 181.488 31.8418L182.468 31.7588V33.9336H174.101V31.7588L175.063 31.8418C175.672 31.7643 176.01 31.4323 176.076 30.8457V13.3643C176.076 13.0765 175.977 12.833 175.777 12.6338C175.589 12.4346 175.351 12.335 175.063 12.335L174.101 12.4014V10.2266H186.734C186.823 10.2266 186.911 10.2321 187 10.2432H187.266C187.465 10.2542 187.653 10.2708 187.83 10.293ZM180.476 13.3643V20.9844C180.819 21.9694 181.355 22.8271 182.086 23.5576C183.425 24.8525 184.975 25.5 186.734 25.5C188.494 25.5 190.044 24.8525 191.383 23.5576C191.914 23.0153 192.18 22.2904 192.18 21.3828C192.18 20.9844 192.124 20.5583 192.014 20.1045C191.604 18.4111 190.658 16.8118 189.175 15.3066C187.758 13.9121 186.236 12.988 184.609 12.5342C184.477 12.501 184.338 12.4678 184.194 12.4346C183.896 12.3682 183.602 12.335 183.314 12.335H181.505C181.228 12.335 180.985 12.4346 180.774 12.6338C180.575 12.833 180.476 13.0765 180.476 13.3643ZM219.273 30.7295C218.122 31.8805 216.811 32.7604 215.339 33.3691C213.878 33.9779 212.34 34.2822 210.724 34.2822C209.108 34.2822 207.564 33.9779 206.092 33.3691C204.631 32.7604 203.325 31.8805 202.174 30.7295C201.023 29.5785 200.143 28.2725 199.534 26.8115C198.925 25.3395 198.621 23.7956 198.621 22.1797C198.621 20.5638 198.925 19.0254 199.534 17.5645C200.143 16.0924 201.023 14.7809 202.174 13.6299C203.325 12.4788 204.631 11.599 206.092 10.9902C207.564 10.3815 209.108 10.0771 210.724 10.0771C212.34 10.0771 213.878 10.3815 215.339 10.9902C216.811 11.599 218.122 12.4788 219.273 13.6299C220.424 14.7809 221.299 16.0924 221.896 17.5645C222.505 19.0254 222.81 20.5638 222.81 22.1797C222.81 23.7956 222.505 25.3395 221.896 26.8115C221.299 28.2725 220.424 29.5785 219.273 30.7295ZM208.416 13.2812C206.512 13.2812 204.924 13.8955 203.651 15.124C202.423 16.3968 201.809 17.985 201.809 19.8887C201.809 20.2318 201.831 20.5749 201.875 20.918C202.207 23.3861 203.347 25.6162 205.295 27.6084C206.413 28.7152 207.641 29.5729 208.98 30.1816C210.331 30.7793 211.681 31.0781 213.031 31.0781C214.946 31.0781 216.529 30.4694 217.779 29.252C219.008 27.9681 219.622 26.3799 219.622 24.4873C219.622 24.1331 219.6 23.7734 219.556 23.4082C219.224 20.9512 218.089 18.7321 216.152 16.751C215.035 15.6442 213.8 14.792 212.45 14.1943C211.111 13.5856 209.766 13.2812 208.416 13.2812ZM230.978 14.3936V14.2441C231.121 12.4622 231.974 11.2061 233.534 10.4756C234.032 10.2653 234.547 10.1602 235.078 10.1602H246.467V12.3516L245.521 12.2686C244.956 12.335 244.635 12.6725 244.558 13.2812V30.8789C244.558 31.1556 244.646 31.3991 244.823 31.6094C245.011 31.8086 245.244 31.9137 245.521 31.9248L246.467 31.8418V34.0332H238.349V31.8418L239.295 31.9248C239.572 31.9137 239.799 31.8086 239.976 31.6094C240.164 31.3991 240.258 31.1556 240.258 30.8789V13.3145C240.258 13.1595 240.225 13.0156 240.158 12.8828V12.8662C239.937 12.4678 239.644 12.2686 239.278 12.2686H237.286C237.087 12.2686 236.888 12.2962 236.688 12.3516C236.39 12.418 236.102 12.5397 235.825 12.7168C235.537 12.8828 235.266 13.1042 235.012 13.3809C234.746 13.6465 234.503 13.9619 234.281 14.3271C234.049 14.6924 233.839 15.0908 233.65 15.5225C233.484 15.9541 233.335 16.4079 233.202 16.8838C233.202 16.9613 233.191 17.0332 233.169 17.0996C233.158 17.0996 233.152 17.1051 233.152 17.1162C233.13 17.1826 233.119 17.249 233.119 17.3154C233.086 17.4372 233.058 17.5645 233.036 17.6973C232.959 18.1842 232.914 18.6934 232.903 19.2246C232.892 19.3574 232.881 19.4902 232.87 19.623L232.837 20.1543C232.826 20.3867 232.815 20.6247 232.804 20.8682C232.804 20.8792 232.798 20.8903 232.787 20.9014V20.918L232.737 21.9639C232.726 22.0635 232.715 22.1742 232.704 22.2959C232.682 22.5062 232.671 22.7109 232.671 22.9102V22.9268L232.455 26.4131C232.444 26.5791 232.433 26.7451 232.422 26.9111C232.422 26.9886 232.416 27.0771 232.405 27.1768C232.405 27.2764 232.4 27.387 232.389 27.5088C232.389 27.6416 232.383 27.7799 232.372 27.9238C232.317 28.6986 232.212 29.3737 232.057 29.9492C231.891 30.5801 231.653 31.1667 231.343 31.709C230.823 32.6165 230.181 33.2695 229.417 33.668C229.406 33.668 229.389 33.6735 229.367 33.6846C228.902 33.917 228.421 34.0332 227.923 34.0332C227.425 34.0332 226.949 33.9225 226.495 33.7012C226.384 33.6348 226.274 33.5739 226.163 33.5186L225.715 33.2363V27.1602H227.873L227.79 28.1562V28.2061C227.79 28.4938 227.945 28.765 228.255 29.0195C228.565 29.2741 228.875 29.4678 229.185 29.6006C229.317 29.6449 229.439 29.667 229.55 29.667C229.649 29.667 229.755 29.6393 229.865 29.584C229.976 29.5286 230.053 29.4069 230.098 29.2188C230.197 28.8535 230.258 28.4717 230.28 28.0732L230.297 27.7412L230.396 25.9814L230.978 14.3936ZM255.448 14.3936V14.2441C255.592 12.4622 256.444 11.2061 258.005 10.4756C258.503 10.2653 259.018 10.1602 259.549 10.1602H270.938V12.3516L269.991 12.2686C269.427 12.335 269.106 12.6725 269.028 13.2812V30.8789C269.028 31.1556 269.117 31.3991 269.294 31.6094C269.482 31.8086 269.715 31.9137 269.991 31.9248L270.938 31.8418V34.0332H262.819V31.8418L263.766 31.9248C264.042 31.9137 264.269 31.8086 264.446 31.6094C264.634 31.3991 264.729 31.1556 264.729 30.8789V13.3145C264.729 13.1595 264.695 13.0156 264.629 12.8828V12.8662C264.408 12.4678 264.114 12.2686 263.749 12.2686H261.757C261.558 12.2686 261.358 12.2962 261.159 12.3516C260.86 12.418 260.573 12.5397 260.296 12.7168C260.008 12.8828 259.737 13.1042 259.482 13.3809C259.217 13.6465 258.973 13.9619 258.752 14.3271C258.52 14.6924 258.309 15.0908 258.121 15.5225C257.955 15.9541 257.806 16.4079 257.673 16.8838C257.673 16.9613 257.662 17.0332 257.64 17.0996C257.629 17.0996 257.623 17.1051 257.623 17.1162C257.601 17.1826 257.59 17.249 257.59 17.3154C257.557 17.4372 257.529 17.5645 257.507 17.6973C257.429 18.1842 257.385 18.6934 257.374 19.2246C257.363 19.3574 257.352 19.4902 257.341 19.623L257.308 20.1543C257.297 20.3867 257.285 20.6247 257.274 20.8682C257.274 20.8792 257.269 20.8903 257.258 20.9014V20.918L257.208 21.9639C257.197 22.0635 257.186 22.1742 257.175 22.2959C257.153 22.5062 257.142 22.7109 257.142 22.9102V22.9268L256.926 26.4131C256.915 26.5791 256.904 26.7451 256.893 26.9111C256.893 26.9886 256.887 27.0771 256.876 27.1768C256.876 27.2764 256.87 27.387 256.859 27.5088C256.859 27.6416 256.854 27.7799 256.843 27.9238C256.787 28.6986 256.682 29.3737 256.527 29.9492C256.361 30.5801 256.123 31.1667 255.813 31.709C255.293 32.6165 254.651 33.2695 253.888 33.668C253.877 33.668 253.86 33.6735 253.838 33.6846C253.373 33.917 252.892 34.0332 252.394 34.0332C251.896 34.0332 251.42 33.9225 250.966 33.7012C250.855 33.6348 250.744 33.5739 250.634 33.5186L250.186 33.2363V27.1602H252.344L252.261 28.1562V28.2061C252.261 28.4938 252.416 28.765 252.726 29.0195C253.035 29.2741 253.345 29.4678 253.655 29.6006C253.788 29.6449 253.91 29.667 254.021 29.667C254.12 29.667 254.225 29.6393 254.336 29.584C254.447 29.5286 254.524 29.4069 254.568 29.2188C254.668 28.8535 254.729 28.4717 254.751 28.0732L254.768 27.7412L254.867 25.9814L255.448 14.3936ZM278.259 13.6133C279.41 12.4733 280.716 11.599 282.177 10.9902C283.649 10.3815 285.187 10.0771 286.792 10.0771C288.674 10.0771 290.461 10.4977 292.154 11.3389C292.165 11.3499 292.176 11.3555 292.188 11.3555C292.243 11.3555 292.271 11.3389 292.271 11.3057C292.337 11.1729 292.37 11.0345 292.37 10.8906L292.287 9.92773H294.479V18.2949H292.287L292.37 17.3154C292.37 17.0498 292.271 16.8174 292.071 16.6182L292.038 16.585C291.64 16.1865 291.214 15.8213 290.76 15.4893C288.69 14.0062 286.598 13.2646 284.484 13.2646C282.581 13.2646 280.998 13.8734 279.736 15.0908C278.519 16.3636 277.91 17.9352 277.91 19.8057C277.91 20.1488 277.932 20.5029 277.977 20.8682C278.298 23.3363 279.432 25.5609 281.38 27.542C282.487 28.6488 283.71 29.5065 285.049 30.1152C286.399 30.7129 287.744 31.0117 289.083 31.0117C290.998 31.0117 292.58 30.403 293.831 29.1855C293.975 29.0417 294.108 28.8867 294.229 28.7207L294.827 27.9902L296.471 29.3682L295.856 30.082C294.694 31.3991 293.327 32.4173 291.756 33.1367C290.184 33.8451 288.53 34.1992 286.792 34.1992C285.187 34.1992 283.649 33.8949 282.177 33.2861C280.716 32.6774 279.41 31.8031 278.259 30.6631C275.901 28.2061 274.723 25.3672 274.723 22.1465C274.723 20.5306 275.027 18.9922 275.636 17.5312C276.244 16.0703 277.119 14.7643 278.259 13.6133ZM299.094 26.4131V23.5576H311.362V26.4131H299.094ZM328.877 10.293L329.69 10.4092V10.4424C329.768 10.4535 329.845 10.4701 329.923 10.4922C331.461 10.8906 332.795 11.6488 333.924 12.7666C334.765 13.6188 335.396 14.5762 335.816 15.6387C336.237 16.7012 336.447 17.7913 336.447 18.9092C336.447 20.016 336.237 21.1006 335.816 22.1631C335.396 23.2256 334.765 24.1885 333.924 25.0518C332.917 26.0479 331.738 26.7617 330.388 27.1934V27.21L329.923 27.3262C329.226 27.5033 328.512 27.5918 327.781 27.5918C327.084 27.5918 326.398 27.5088 325.723 27.3428L325.64 27.3262C324.112 26.9277 322.779 26.1696 321.639 25.0518C321.605 25.0075 321.567 24.9688 321.522 24.9355V30.8125C321.522 31.0892 321.622 31.3271 321.821 31.5264C322.021 31.7256 322.258 31.8307 322.535 31.8418L323.515 31.7588V33.9336H315.147V31.7588L316.11 31.8418C316.719 31.7643 317.057 31.4323 317.123 30.8457V13.3643C317.123 13.0765 317.023 12.833 316.824 12.6338C316.636 12.4346 316.398 12.335 316.11 12.335L315.147 12.4014V10.2266H327.781C327.87 10.2266 327.958 10.2321 328.047 10.2432H328.312C328.512 10.2542 328.7 10.2708 328.877 10.293ZM321.522 13.3643V20.9844C321.866 21.9694 322.402 22.8271 323.133 23.5576C324.472 24.8525 326.021 25.5 327.781 25.5C329.541 25.5 331.09 24.8525 332.43 23.5576C332.961 23.0153 333.227 22.2904 333.227 21.3828C333.227 20.9844 333.171 20.5583 333.061 20.1045C332.651 18.4111 331.705 16.8118 330.222 15.3066C328.805 13.9121 327.283 12.988 325.656 12.5342C325.523 12.501 325.385 12.4678 325.241 12.4346C324.942 12.3682 324.649 12.335 324.361 12.335H322.552C322.275 12.335 322.032 12.4346 321.821 12.6338C321.622 12.833 321.522 13.0765 321.522 13.3643ZM360.32 30.7295C359.169 31.8805 357.858 32.7604 356.386 33.3691C354.925 33.9779 353.386 34.2822 351.771 34.2822C350.155 34.2822 348.611 33.9779 347.139 33.3691C345.678 32.7604 344.372 31.8805 343.221 30.7295C342.07 29.5785 341.19 28.2725 340.581 26.8115C339.972 25.3395 339.668 23.7956 339.668 22.1797C339.668 20.5638 339.972 19.0254 340.581 17.5645C341.19 16.0924 342.07 14.7809 343.221 13.6299C344.372 12.4788 345.678 11.599 347.139 10.9902C348.611 10.3815 350.155 10.0771 351.771 10.0771C353.386 10.0771 354.925 10.3815 356.386 10.9902C357.858 11.599 359.169 12.4788 360.32 13.6299C361.471 14.7809 362.346 16.0924 362.943 17.5645C363.552 19.0254 363.856 20.5638 363.856 22.1797C363.856 23.7956 363.552 25.3395 362.943 26.8115C362.346 28.2725 361.471 29.5785 360.32 30.7295ZM349.463 13.2812C347.559 13.2812 345.971 13.8955 344.698 15.124C343.47 16.3968 342.855 17.985 342.855 19.8887C342.855 20.2318 342.878 20.5749 342.922 20.918C343.254 23.3861 344.394 25.6162 346.342 27.6084C347.46 28.7152 348.688 29.5729 350.027 30.1816C351.378 30.7793 352.728 31.0781 354.078 31.0781C355.993 31.0781 357.576 30.4694 358.826 29.252C360.055 27.9681 360.669 26.3799 360.669 24.4873C360.669 24.1331 360.647 23.7734 360.603 23.4082C360.271 20.9512 359.136 18.7321 357.199 16.751C356.081 15.6442 354.847 14.792 353.497 14.1943C352.158 13.5856 350.813 13.2812 349.463 13.2812ZM366.828 10.1768H372.755L373.386 11.3887L373.519 11.6211L380.574 25.0352L386.949 12.916L387.348 12.1689L388.394 10.1768H393.191V12.3682L392.229 12.2852C391.941 12.2962 391.697 12.4014 391.498 12.6006C391.31 12.7998 391.216 13.0378 391.216 13.3145V30.8125C391.216 31.0892 391.31 31.3271 391.498 31.5264C391.697 31.7256 391.941 31.8307 392.229 31.8418L393.191 31.7754V33.9502H384.808V31.7754L385.787 31.8418C386.075 31.8307 386.313 31.7256 386.501 31.5264C386.7 31.3271 386.8 31.0892 386.8 30.8125V17.6807L381.521 27.708L381.139 28.4219L381.105 28.5049L379.379 31.7754L372.074 17.9131V29.6504C372.096 30.2702 372.318 30.7904 372.738 31.2109C373.17 31.6315 373.69 31.8418 374.299 31.8418H375.229V33.9502H366.828V31.8418H367.774C368.372 31.8418 368.881 31.6315 369.302 31.2109C369.733 30.7904 369.96 30.2702 369.982 29.6504V14.4766C369.96 13.8568 369.733 13.3366 369.302 12.916C368.881 12.4954 368.372 12.2852 367.774 12.2852H366.828V10.1768ZM400.081 13.6133C401.232 12.4733 402.538 11.599 403.999 10.9902C405.471 10.3815 407.009 10.0771 408.614 10.0771C410.496 10.0771 412.283 10.4977 413.977 11.3389C413.988 11.3499 413.999 11.3555 414.01 11.3555C414.065 11.3555 414.093 11.3389 414.093 11.3057C414.159 11.1729 414.192 11.0345 414.192 10.8906L414.109 9.92773H416.301V18.2949H414.109L414.192 17.3154C414.192 17.0498 414.093 16.8174 413.894 16.6182L413.86 16.585C413.462 16.1865 413.036 15.8213 412.582 15.4893C410.512 14.0062 408.421 13.2646 406.307 13.2646C404.403 13.2646 402.82 13.8734 401.559 15.0908C400.341 16.3636 399.732 17.9352 399.732 19.8057C399.732 20.1488 399.755 20.5029 399.799 20.8682C400.12 23.3363 401.254 25.5609 403.202 27.542C404.309 28.6488 405.532 29.5065 406.871 30.1152C408.221 30.7129 409.566 31.0117 410.905 31.0117C412.82 31.0117 414.403 30.403 415.653 29.1855C415.797 29.0417 415.93 28.8867 416.052 28.7207L416.649 27.9902L418.293 29.3682L417.679 30.082C416.517 31.3991 415.15 32.4173 413.578 33.1367C412.007 33.8451 410.352 34.1992 408.614 34.1992C407.009 34.1992 405.471 33.8949 403.999 33.2861C402.538 32.6774 401.232 31.8031 400.081 30.6631C397.724 28.2061 396.545 25.3672 396.545 22.1465C396.545 20.5306 396.849 18.9922 397.458 17.5312C398.067 16.0703 398.941 14.7643 400.081 13.6133Z" fill="#530400"/>
</svg>
